<svg width="442" height="60" viewBox="0 0 442 60" fill="none" xmlns="http://www.w3.org/2000/svg">
<path d="M138.047 20.45C137.196 18.0731 135.859 15.9142 134.118 14.121C132.404 12.4824 130.381 11.2166 128.18 10.4009C125.945 9.50776 123.607 8.88891 121.227 8.56543C118.725 8.26304 116.208 8.12239 113.685 8.13646H97.0986V51.8634H113.664C116.188 51.8775 118.704 51.7298 121.207 51.4274C123.593 51.1039 125.924 50.478 128.159 49.5638C130.36 48.727 132.376 47.4541 134.097 45.8156C135.839 44.0224 137.176 41.8634 138.026 39.4865C140.097 33.3332 140.097 26.6525 138.026 20.4993L138.047 20.45ZM131.361 37.6511C131.252 37.9464 131.142 38.2207 131.025 38.4809C130.415 39.7819 129.565 40.9492 128.516 41.9127C127.275 43.1433 125.766 44.0716 124.121 44.6131C122.516 45.2108 120.85 45.6046 119.157 45.7875C117.641 45.9351 115.817 46.0125 113.671 46.0055H104.072V13.6568H113.671C115.831 13.6568 117.669 13.7342 119.157 13.8748C120.85 14.0647 122.516 14.4655 124.121 15.0563C125.76 15.5977 127.261 16.5049 128.516 17.7215C129.538 18.7412 130.36 19.9437 130.943 21.2799C131.087 21.6033 131.231 21.9409 131.361 22.3136C132.897 27.2995 132.897 32.6511 131.361 37.637" fill="#0A2C40"/>
<path d="M163.79 28.8573V32.7598H161.817V28.8573L148.175 8.1355H140.59L159.268 35.9872V51.8643H166.02V35.9872L185.094 8.1355H177.509L163.79 28.8573Z" fill="#0A2C40"/>
<path d="M234.654 13.2739H252.416V51.8643H258.171V13.2739H276.123V8.1355H234.654V13.2739Z" fill="#0A2C40"/>
<path d="M320.161 14.2916C315.809 10.1875 309.909 8.1355 302.456 8.1355C295.002 8.1355 289.082 10.1875 284.681 14.2916C280.322 18.3957 278.146 23.6215 278.146 29.976C278.146 36.3304 280.322 41.5699 284.681 45.7082C289.033 49.8123 294.96 51.8643 302.456 51.8643C309.951 51.8643 315.857 49.8123 320.161 45.7082C324.52 41.6041 326.696 36.3578 326.696 29.976C326.696 23.5941 324.52 18.3615 320.161 14.2916ZM315.263 42.2266C312.334 45.2841 308.065 46.8163 302.456 46.8095H301.979C296.605 46.7205 292.474 45.2089 289.614 42.2403C286.754 39.2717 285.186 35.0992 285.186 29.9896C285.186 24.8801 286.664 20.8649 289.614 17.8074C292.563 14.7499 296.605 13.3271 301.979 13.2382H302.456C308.072 13.2382 312.341 14.7704 315.263 17.8279C318.185 20.8855 319.65 24.9485 319.656 30.0102C319.656 35.1197 318.192 39.2033 315.263 42.2608" fill="#0A2C40"/>
<path d="M368.64 15.4526C367.634 13.5188 366.044 11.9437 364.096 10.9592C361.964 9.86924 359.671 9.12385 357.3 8.75819C354.317 8.30814 351.299 8.10421 348.282 8.13937H333.776V51.8643H340.107V37.1604H348.31C351.328 37.1956 354.345 36.9916 357.328 36.5416C359.692 36.1759 361.992 35.4305 364.124 34.3406C366.072 33.3561 367.662 31.7809 368.668 29.8471C370.694 25.2623 370.694 20.0375 368.668 15.4526H368.64ZM362.02 27.5195C361.338 28.7853 360.248 29.7768 358.918 30.3323C357.49 30.9582 355.985 31.3871 354.444 31.6051C352.481 31.8513 350.512 31.9638 348.535 31.9427H340.107V13.343H348.549C350.526 13.322 352.495 13.4345 354.458 13.6876C355.999 13.9056 357.504 14.3346 358.932 14.9604C360.262 15.5159 361.352 16.5074 362.034 17.7732C363.364 20.8813 363.364 24.4044 362.034 27.5125" fill="#0A2C40"/>
<path d="M425.967 8.1355H411.479L395.474 51.8643H402.495L408.48 35.3614H429.021L435.006 51.8643H442L425.967 8.1355ZM410.326 30.1581L417.752 9.81602H419.694L427.12 30.1581H410.326Z" fill="#0A2C40"/>
<path d="M387.382 8.1355H381.313V51.8643H387.382V8.1355Z" fill="#0A2C40"/>
<path d="M213.609 27.418H204.096V27.3695C198.619 27.3695 194.162 24.2158 194.162 20.3413C194.162 16.4668 198.619 13.32 204.096 13.32V13.2715H227.735V8.1355H204.116C195.283 8.1355 188.128 13.5973 188.128 20.3413C188.128 27.0853 195.29 32.554 204.116 32.554H213.629V32.6303C219.106 32.6303 223.563 35.777 223.563 39.6516C223.563 43.5261 219.106 46.6798 213.629 46.6798V46.7283H189.772V51.8643H213.609C222.442 51.8643 229.597 46.3956 229.597 39.6516C229.597 32.9075 222.442 27.4388 213.609 27.4388" fill="#0A2C40"/>
<path d="M36.908 0H0L19.6067 23.5696C20.7849 24.994 22.5318 25.8138 24.3701 25.8138H32.2006L17.6009 8.25961H36.5221C48.146 8.25961 57.962 17.4056 58.3987 29.1238C58.6679 36.1691 55.5245 42.9018 49.969 47.1802L40.9604 36.3484C39.7822 34.924 38.0354 34.1042 36.1971 34.1042H28.3666L42.3721 50.9974C40.5897 51.4688 38.7514 51.7096 36.908 51.7096H9.79576C7.95746 51.7096 6.21566 52.5295 5.03245 53.9488L0 60H36.4611C52.7975 60 66.4222 46.8933 66.6304 30.415C66.8386 13.8395 53.6913 0.230572 37.2584 0.0204953C37.1416 0.0204953 37.0248 0.0204953 36.908 0.0153715" fill="#0B5E8E"/>
</svg>
