<?xml version="1.0" encoding="utf-8"?>
<!-- Generator: Adobe Illustrator 26.2.1, SVG Export Plug-In . SVG Version: 6.00 Build 0)  -->
<svg version="1.1" id="Layer_1" xmlns="http://www.w3.org/2000/svg" xmlns:xlink="http://www.w3.org/1999/xlink" x="0px" y="0px"
	 viewBox="0 0 1025 366.05" style="enable-background:new 0 0 1025 366.05;" xml:space="preserve">
<style type="text/css">
	.st0{fill:#085F8E;}
	.st1{fill:#0A2C40;}
	.st2{fill:#F1F1F1;}
	.st3{fill:#FFFFFF;}
</style>
<g>
	<g>
		<g>
			<path class="st0" d="M153.9,169.02c2.61,3.12,6.47,4.92,10.54,4.91h17.32l-32.3-38.49h41.87c25.7,0,47.43,20.06,48.41,45.76
				c0.59,15.45-6.37,30.22-18.66,39.6l-19.93-23.77c-2.62-3.11-6.47-4.91-10.54-4.91h-17.33l30.99,36.94
				c-3.95,1.03-8.01,1.55-12.09,1.55h-59.99c-4.07,0-7.93,1.8-10.55,4.91l-11.13,13.27h80.68c36.14,0,66.27-28.73,66.75-64.88
				c0.48-36.33-28.59-66.17-64.92-66.65c-0.29,0-0.58-0.01-0.87-0.01h-81.62v0.04L153.9,169.02z"/>
		</g>
	</g>
	<g>
		<g>
			<path class="st3" d="M411.53,167.81c-1.39-3.79-3.59-7.24-6.44-10.11c-2.81-2.61-6.12-4.63-9.73-5.94
				c-3.67-1.43-7.49-2.41-11.39-2.93c-4.1-0.48-8.23-0.71-12.36-0.69h-27.17v69.84h27.14c4.13,0.02,8.26-0.21,12.36-0.7
				c3.91-0.51,7.73-1.51,11.39-2.98c3.6-1.34,6.91-3.37,9.73-5.99c2.85-2.87,5.04-6.32,6.44-10.11c3.39-9.83,3.39-20.5,0-30.33
				 M400.58,195.28c-0.18,0.47-0.36,0.91-0.55,1.33c-0.99,2.08-2.39,3.94-4.11,5.48c-2.04,1.97-4.5,3.45-7.2,4.31
				c-2.63,0.95-5.36,1.58-8.13,1.88c-2.48,0.24-5.47,0.36-8.99,0.35h-15.73v-51.67h15.73c3.54,0,6.55,0.12,8.99,0.35
				c2.78,0.3,5.51,0.94,8.13,1.89c2.69,0.86,5.15,2.32,7.2,4.26c1.67,1.62,3.02,3.55,3.98,5.68c0.24,0.52,0.47,1.06,0.69,1.65
				c2.52,7.96,2.52,16.51,0,24.48"/>
			<polygon class="st3" points="453.62,181.18 453.62,187.42 450.43,187.42 450.43,181.18 428.37,148.08 416.1,148.08 
				446.31,192.57 446.31,217.94 457.22,217.94 457.22,192.57 488.07,148.08 475.8,148.08 			"/>
			<polygon class="st3" points="568.91,156.42 598.27,156.42 598.27,218.92 607.78,218.92 607.78,156.42 637.46,156.42 
				637.46,148.09 568.91,148.09 			"/>
			<path class="st3" d="M709.29,157.2c-7.08-6.74-16.67-10.11-28.79-10.11c-12.12,0-21.75,3.37-28.9,10.11
				c-7.08,6.74-10.63,15.32-10.63,25.76c0,10.43,3.54,19.04,10.63,25.83c7.08,6.74,16.71,10.11,28.9,10.11s21.79-3.37,28.79-10.11
				c7.08-6.74,10.63-15.35,10.63-25.83C719.92,172.47,716.38,163.89,709.29,157.2 M701.33,203.08c-4.76,5.02-11.7,7.53-20.82,7.53
				h-0.78c-8.74-0.15-15.46-2.63-20.11-7.5c-4.65-4.87-7.2-11.73-7.2-20.12c0-8.39,2.4-14.98,7.2-20s11.37-7.36,20.11-7.5
				c0.26,0,0.51,0,0.78,0c9.14,0,16.08,2.51,20.82,7.54c4.75,5.02,7.13,11.69,7.14,20c0,8.39-2.38,15.09-7.14,20.12"/>
			<path class="st3" d="M788.55,159.77c-1.61-3.09-4.15-5.6-7.26-7.18c-3.41-1.74-7.07-2.93-10.85-3.52
				c-4.77-0.72-9.58-1.05-14.4-0.99h-23.16v69.84h10.11v-23.49h13.1c4.82,0.06,9.63-0.27,14.4-0.99c3.78-0.59,7.44-1.77,10.85-3.52
				c3.11-1.57,5.65-4.08,7.26-7.18c3.23-7.32,3.23-15.67,0-22.99 M777.98,179.05c-1.08,2.02-2.83,3.61-4.95,4.49
				c-2.28,1-4.68,1.68-7.14,2.03c-3.13,0.4-6.28,0.58-9.44,0.54h-13.46V156.4h13.48c3.15-0.03,6.31,0.15,9.44,0.55
				c2.46,0.35,4.87,1.03,7.14,2.03c2.12,0.88,3.87,2.47,4.95,4.49c2.13,4.97,2.13,10.59,0,15.56"/>
			<path class="st3" d="M880.25,148.4h-23.71l-26.19,69.85h11.49l9.79-26.36h33.62l9.79,26.36h11.45L880.25,148.4z M854.65,183.58
				l12.15-32.5h3.18l12.15,32.5H854.65z"/>
			<rect x="806.38" y="148.08" class="st3" width="10.29" height="69.84"/>
			<path class="st3" d="M534.81,179.34h-15.73v-0.08c-9.05,0-16.42-5.11-16.42-11.39c0-6.28,7.37-11.38,16.42-11.38v-0.08h39.08
				v-8.32h-39.04c-14.6,0-26.43,8.85-26.43,19.78s11.84,19.79,26.43,19.79h15.73v0.12c9.05,0,16.42,5.1,16.42,11.38
				c0,6.28-7.37,11.39-16.42,11.39v0.08H495.4v8.32h39.4c14.6,0,26.43-8.86,26.43-19.79s-11.83-19.79-26.43-19.79"/>
		</g>
	</g>
</g>
</svg>
