<svg width="705" height="885" viewBox="0 0 705 885" fill="none" xmlns="http://www.w3.org/2000/svg">
<mask id="path-1-inside-1_831_7687" fill="white">
<path fill-rule="evenodd" clip-rule="evenodd" d="M705 0H30L0 30V885H675L705 855V0Z"/>
</mask>
<path fill-rule="evenodd" clip-rule="evenodd" d="M705 0H30L0 30V885H675L705 855V0Z" fill="#DBE6EC"/>
<path d="M30 0V-1H29.5858L29.2929 -0.707107L30 0ZM705 0H706V-1H705V0ZM0 30L-0.707107 29.2929L-1 29.5858V30H0ZM0 885H-1V886H0V885ZM675 885V886H675.414L675.707 885.707L675 885ZM705 855L705.707 855.707L706 855.414V855H705ZM30 1H705V-1H30V1ZM0.707107 30.7071L30.7071 0.707107L29.2929 -0.707107L-0.707107 29.2929L0.707107 30.7071ZM1 885V30H-1V885H1ZM675 884H0V886H675V884ZM704.293 854.293L674.293 884.293L675.707 885.707L705.707 855.707L704.293 854.293ZM704 0V855H706V0H704Z" fill="#86B9D6" mask="url(#path-1-inside-1_831_7687)"/>
</svg>
