<svg width="70" height="70" viewBox="0 0 70 70" fill="none" xmlns="http://www.w3.org/2000/svg">
<rect width="70" height="70" rx="35" fill="#9BC9E4"/>
<path d="M35.0001 42.5C35.8926 42.5 36.7126 42.8125 37.3576 43.3325L35.0001 46.25L32.6426 43.3325C33.3094 42.7923 34.1419 42.4983 35.0001 42.5ZM23.5101 21.7412L45.6063 43.8387L43.8388 45.6062L39.2363 41.0062L38.9276 41.3887C37.8168 40.4885 36.4299 39.9981 35.0001 40C33.5709 39.998 32.1845 40.488 31.0738 41.3875L28.7176 38.47C30.3601 37.1393 32.3837 36.3661 34.4951 36.2625L32.2788 34.0475C30.3995 34.4655 28.6427 35.3135 27.1463 36.525L24.7876 33.6087C26.1348 32.5177 27.6482 31.6496 29.2701 31.0375L27.3563 29.125C25.873 29.7884 24.4822 30.6418 23.2188 31.6637L20.8613 28.7462C22.0051 27.8212 23.2401 27.0075 24.5513 26.3187L21.7413 23.51L23.5101 21.7412ZM40.1051 34.8375L35.2701 30.0037L35.0001 30C38.8688 30 42.4213 31.3512 45.2126 33.6087L42.8551 36.5262C42.0153 35.8464 41.0909 35.2783 40.1051 34.8362V34.8375ZM35.0001 23.75C40.3563 23.75 45.2751 25.6212 49.1376 28.7462L46.7826 31.6625C43.4497 28.9629 39.2891 27.493 35.0001 27.5C34.2851 27.5 33.5801 27.54 32.8876 27.6175L29.6538 24.3887C31.3676 23.9712 33.1588 23.75 35.0001 23.75Z" fill="#0B5E8E"/>
</svg>
