<svg width="22" height="24" viewBox="0 0 22 24" fill="none" xmlns="http://www.w3.org/2000/svg">
<path d="M19.7617 4.82501L12.8317 0.823344C11.7 0.17001 10.3 0.17001 9.15668 0.823344L2.23834 4.82501C1.10668 5.47834 0.406677 6.69168 0.406677 8.01001V15.99C0.406677 17.2967 1.10668 18.51 2.23834 19.175L9.16834 23.1767C10.3 23.83 11.7 23.83 12.8433 23.1767L19.7733 19.175C20.905 18.5217 21.605 17.3083 21.605 15.99V8.01001C21.5933 6.69168 20.8933 5.49001 19.7617 4.82501ZM10.125 7.04168C10.125 6.56334 10.5217 6.16668 11 6.16668C11.4783 6.16668 11.875 6.56334 11.875 7.04168V13.1667C11.875 13.645 11.4783 14.0417 11 14.0417C10.5217 14.0417 10.125 13.645 10.125 13.1667V7.04168ZM12.0733 17.4017C12.015 17.5417 11.9333 17.67 11.8283 17.7867C11.6067 18.0083 11.315 18.125 11 18.125C10.8483 18.125 10.6967 18.09 10.5567 18.0317C10.405 17.9733 10.2883 17.8917 10.1717 17.7867C10.0667 17.67 9.98501 17.5417 9.91501 17.4017C9.85668 17.2617 9.83334 17.11 9.83334 16.9583C9.83334 16.655 9.95001 16.3517 10.1717 16.13C10.2883 16.025 10.405 15.9433 10.5567 15.885C10.9883 15.6983 11.5017 15.8033 11.8283 16.13C11.9333 16.2467 12.015 16.3633 12.0733 16.515C12.1317 16.655 12.1667 16.8067 12.1667 16.9583C12.1667 17.11 12.1317 17.2617 12.0733 17.4017Z" fill="#8191B9"/>
</svg>
