<svg width="24" height="34" viewBox="0 0 24 34" fill="none" xmlns="http://www.w3.org/2000/svg">
<path d="M13.0264 7H0L6.92003 14.8565C7.33584 15.3313 7.95239 15.6046 8.60119 15.6046H11.3649L6.21207 9.7532H12.8901C16.9927 9.7532 20.4572 12.8019 20.6113 16.7079C20.7063 19.0564 19.5969 21.3006 17.6361 22.7267L14.4566 19.1161C14.0408 18.6413 13.4242 18.3681 12.7754 18.3681H10.0117L14.9549 23.9991C14.3258 24.1563 13.677 24.2365 13.0264 24.2365H3.45733C2.80852 24.2365 2.19376 24.5098 1.77616 24.9829L0 27H12.8686C18.6344 27 23.4431 22.6311 23.5166 17.1383C23.5901 11.6132 18.9499 7.07686 13.15 7.00683C13.1088 7.00683 13.0676 7.00683 13.0264 7.00512" fill="#4CADE6"/>
</svg>
