<svg width="400" height="400" viewBox="0 0 400 400" fill="none" xmlns="http://www.w3.org/2000/svg">
<path d="M200 400C310.834 400 400 310.834 400 200C400 89.166 310.834 0 200 0C89.166 0 0 89.166 0 200C0 310.834 89.166 400 200 400Z" fill="#0B5E8E"/>
<g clip-path="url(#clip0_18_45)">
<path d="M163.968 181.326C168.218 186.22 174.494 189.047 181.12 189.047H209.317L156.739 128.573H224.897C266.732 128.573 302.108 160.086 303.697 200.466C304.651 224.743 293.322 247.954 273.325 262.684L240.878 225.341C236.627 220.447 230.335 217.62 223.725 217.62H195.512L245.965 275.655C239.539 277.27 232.929 278.094 226.286 278.094H128.626C121.999 278.094 115.724 280.92 111.456 285.814L93.3334 306.667H224.662C283.499 306.667 332.547 261.521 333.317 204.73C334.086 147.649 286.779 100.759 227.641 100.016C227.156 100 226.687 100 226.219 100H93.3501V100.065L163.968 181.326Z" fill="#F2F2F2"/>
</g>
<defs>
<clipPath id="clip0_18_45">
<rect width="240" height="206.667" fill="white" transform="translate(93.3334 100)"/>
</clipPath>
</defs>
</svg>
