<?xml version="1.0" encoding="UTF-8"?><svg id="Layer_1" xmlns="http://www.w3.org/2000/svg" viewBox="0 0 512 512"><defs><style>.cls-1{stroke-width:2.26px;}.cls-1,.cls-2{fill:#d3f85a;stroke:#d3f85a;stroke-linecap:round;stroke-linejoin:round;}.cls-2{stroke-width:2.26px;}.cls-3{fill:#2b3a5b;}</style></defs><circle class="cls-3" cx="256" cy="256" r="256"/><g><path class="cls-2" d="M412.38,161.54c-.63-1.03-1.66-1.77-2.85-2s-2.46,0-3.43,.74l-.23,.17-.17,.11-54.7,36.2c-1.88,1.26-2.51,3.77-1.37,5.77,8.62,15.07,13.47,32.26,14.1,49.67,1.94,54.24-37,101.69-90.44,110.31-2.17,.34-3.71,2.23-3.65,4.45l2.34,66.57c0,1.2,.57,2.34,1.48,3.14,.8,.69,1.77,1.03,2.8,1.03h.51c33.69-3.88,65.66-17.07,92.38-38.14,27.46-21.64,48.02-50.59,59.44-83.76,17.76-51.39,11.82-107.62-16.33-154.21l.11-.06Zm17.19,107.68l-57.38-4.8c.29-4.11,.4-8.28,.23-12.5-.06-1.71-.17-3.48-.29-5.2l57.44-4.05c.69,8.79,.69,17.7,0,26.55Zm-11.7,50.81l-53.38-21.41c2.17-5.48,3.88-11.13,5.2-16.96l56.07,13.02c-1.43,6.17-3.14,12.22-5.2,18.27-.86,2.4-1.71,4.8-2.63,7.14l-.06-.06Zm-70.8,8.68c3.71-4.62,7.02-9.53,9.99-14.73l49.67,29.06c-4.45,7.71-9.53,15.02-15.07,21.92l-44.59-36.26Zm70.85-136.57c3.25,8.28,5.88,16.73,7.82,25.29l-56.24,12.45c-1.31-5.77-3.08-11.42-5.25-16.9l53.61-20.84h.06Zm-128.12,175.45c5.77-1.77,11.36-3.94,16.67-6.51l24.66,51.9c-7.99,3.83-16.27,7.08-24.84,9.71l-16.56-55.1h.06Zm63.55,32.6l-31.92-47.73c4.97-3.37,9.65-7.14,13.99-11.19l38.77,42.36c-6.51,6.05-13.47,11.53-20.84,16.56Z"/><path class="cls-2" d="M106.7,159.37l59.21,31.23c.63,.34,1.31,.51,2,.51,1.31,0,2.57-.57,3.43-1.66,19.7-25.01,49.16-40.02,80.96-41.17,30.83-1.08,60.75,11.13,81.99,33.57,1.43,1.54,3.77,1.77,5.54,.63l55.78-36.94c1.03-.69,1.71-1.77,1.88-2.97,.17-1.2-.17-2.46-.97-3.43-21.24-25.58-49.16-44.88-80.73-55.84-77.76-26.89-164.38,1.83-210.62,69.77-.69,1.03-.91,2.28-.63,3.48,.29,1.2,1.08,2.23,2.17,2.8Zm206.23-67.89c28.55,9.88,53.95,26.95,73.77,49.5l-48.7,32.26c-22.78-22.55-53.95-34.77-86.04-33.63-33.12,1.2-63.95,16.27-85.13,41.62l-51.73-27.23c44.71-61.89,125.32-87.58,197.83-62.52Z"/><path class="cls-2" d="M247.55,363.6c-54.58-4.28-97.23-48.87-99.17-103.68-.57-16.84,2.63-33.12,9.53-48.36,.97-2.11,.11-4.57-1.94-5.6l-58.64-30.89c-1.03-.57-2.28-.63-3.37-.29-1.08,.34-2.06,1.2-2.57,2.23-3.03,6.34-5.71,12.9-7.99,19.41-15.87,46.08-12.9,95.69,8.45,139.54,21.35,43.91,58.47,76.85,104.6,92.78,17.13,5.94,35,9.25,52.98,9.93h.17c1.14,0,2.23-.46,3.08-1.26,.86-.86,1.31-2,1.26-3.2l-2.34-66.52c-.06-2.23-1.77-4-4-4.17l-.06,.06Z"/><path class="cls-1" d="M341.46,253.21c-1.65-47.09-41.27-84.03-88.36-82.37-47.03,1.65-83.97,41.33-82.32,88.42,1.65,46.06,39.56,82.43,85.28,82.43h3.08c47.03-1.65,83.97-41.33,82.32-88.42v-.06Zm-82.6,80.66h-2.79c-41.56,0-76.1-33.06-77.59-74.96-1.54-42.81,32.04-78.9,74.85-80.38,20.75-.74,40.47,6.67,55.69,20.81,15.16,14.14,23.94,33.35,24.68,54.1,1.54,42.81-32.04,78.9-74.85,80.38v.06Z"/></g></svg>
