<?xml version="1.0" encoding="utf-8"?>
<!-- Generator: Adobe Illustrator 26.2.1, SVG Export Plug-In . SVG Version: 6.00 Build 0)  -->
<svg version="1.1" id="Layer_1" xmlns="http://www.w3.org/2000/svg" xmlns:xlink="http://www.w3.org/1999/xlink" x="0px" y="0px"
	 viewBox="0 0 1024 1024" style="enable-background:new 0 0 1024 1024;" xml:space="preserve">
<style type="text/css">
	.st0{fill:#085F8E;}
	.st1{fill:#0A2C40;}
	.st2{fill:#F1F1F1;}
	.st3{fill:#FFFFFF;}
</style>
<g>
	<path class="st0" d="M1024,512c0,282.77-229.23,512-512,512S0,794.77,0,512C0,229.23,229.23,0,512,0S1024,229.23,1024,512L1024,512
		"/>
</g>
<g>
	<g>
		<path class="st2" d="M415.36,450.73c11.43,13.63,28.3,21.5,46.09,21.49h75.77L395.93,303.87h183.15
			c112.42,0,207.47,87.73,211.75,200.14c2.58,67.57-27.86,132.18-81.61,173.21l-87.19-103.96c-11.44-13.61-28.31-21.48-46.09-21.49
			h-75.81l135.57,161.56c-17.27,4.51-35.04,6.79-52.88,6.79H320.39c-17.8-0.01-34.69,7.86-46.14,21.49l-48.7,58.05h352.9
			c158.1,0,289.9-125.68,291.97-283.78c2.09-158.93-125.06-289.45-283.98-291.54c-1.27-0.02-2.53-0.02-3.8-0.02H225.6v0.18
			L415.36,450.73z"/>
	</g>
</g>
</svg>
