<svg width="20" height="20" viewBox="0 0 20 20" fill="none" xmlns="http://www.w3.org/2000/svg">
<path d="M16.868 4.32154C15.6048 3.74195 14.2503 3.31493 12.834 3.07036C12.8082 3.06564 12.7825 3.07744 12.7692 3.10103C12.595 3.41087 12.402 3.81508 12.2669 4.13279C10.7436 3.90474 9.22812 3.90474 7.73607 4.13279C7.60091 3.80802 7.40094 3.41087 7.22595 3.10103C7.21266 3.07822 7.1869 3.06643 7.16111 3.07036C5.74562 3.31415 4.39107 3.74117 3.12712 4.32154C3.11618 4.32626 3.1068 4.33413 3.10058 4.34435C0.531279 8.18283 -0.172559 11.927 0.17272 15.6247C0.174283 15.6428 0.184438 15.6601 0.198499 15.6711C1.89365 16.9159 3.53569 17.6717 5.14724 18.1726C5.17303 18.1805 5.20036 18.1711 5.21677 18.1498C5.59799 17.6292 5.9378 17.0803 6.22916 16.5031C6.24636 16.4693 6.22994 16.4292 6.1948 16.4158C5.65579 16.2113 5.14255 15.962 4.64885 15.6789C4.6098 15.6561 4.60667 15.6003 4.6426 15.5735C4.74649 15.4957 4.85041 15.4147 4.94961 15.3329C4.96756 15.318 4.99257 15.3148 5.01368 15.3242C8.2571 16.8051 11.7685 16.8051 14.9736 15.3242C14.9947 15.314 15.0198 15.3172 15.0385 15.3321C15.1377 15.4139 15.2416 15.4957 15.3463 15.5735C15.3822 15.6003 15.3799 15.6561 15.3408 15.6789C14.8471 15.9675 14.3339 16.2113 13.7941 16.415C13.7589 16.4284 13.7433 16.4693 13.7605 16.5031C14.0581 17.0795 14.3979 17.6284 14.7721 18.149C14.7877 18.1711 14.8158 18.1805 14.8416 18.1726C16.461 17.6717 18.103 16.9159 19.7982 15.6711C19.813 15.6601 19.8224 15.6435 19.824 15.6255C20.2372 11.3505 19.1318 7.63707 16.8938 4.34513C16.8883 4.33413 16.8789 4.32626 16.868 4.32154ZM6.71352 13.3731C5.73702 13.3731 4.93242 12.4767 4.93242 11.3757C4.93242 10.2747 5.72142 9.37819 6.71352 9.37819C7.7134 9.37819 8.51022 10.2826 8.49458 11.3757C8.49458 12.4767 7.70558 13.3731 6.71352 13.3731ZM13.2988 13.3731C12.3223 13.3731 11.5177 12.4767 11.5177 11.3757C11.5177 10.2747 12.3067 9.37819 13.2988 9.37819C14.2987 9.37819 15.0955 10.2826 15.0799 11.3757C15.0799 12.4767 14.2987 13.3731 13.2988 13.3731Z" fill="white"/>
</svg>
