<svg width="24" height="24" viewBox="0 0 24 24" fill="none" xmlns="http://www.w3.org/2000/svg">
<path d="M10.8021 17.7698C10.8944 17.77 10.9858 17.7883 11.0711 17.8237C11.1563 17.8592 11.2337 17.9111 11.2989 17.9764C11.3641 18.0418 11.4158 18.1194 11.451 18.2047C11.4862 18.2901 11.5042 18.3815 11.5041 18.4738C11.504 18.5661 11.4857 18.6575 11.4502 18.7428C11.4148 18.828 11.3629 18.9054 11.2975 18.9706C11.2321 19.0358 11.1545 19.0875 11.0692 19.1227C10.9839 19.1579 10.8924 19.176 10.8001 19.1758C10.6137 19.1756 10.435 19.1012 10.3033 18.9692C10.1717 18.8372 10.0978 18.6583 10.0981 18.4718C10.0984 18.2854 10.1727 18.1067 10.3047 17.975C10.4367 17.8434 10.6157 17.7696 10.8021 17.7698ZM21.8261 13.4228C21.7338 13.4228 21.6424 13.4045 21.5571 13.3691C21.4718 13.3337 21.3944 13.2819 21.3292 13.2166C21.2639 13.1512 21.2122 13.0737 21.1769 12.9884C21.1417 12.9031 21.1235 12.8116 21.1236 12.7193C21.1237 12.627 21.1419 12.5356 21.1773 12.4503C21.2127 12.3651 21.2645 12.2876 21.3299 12.2224C21.3952 12.1571 21.4727 12.1054 21.558 12.0701C21.6434 12.0349 21.7348 12.0168 21.8271 12.0168C22.0135 12.017 22.1923 12.0911 22.3241 12.2231C22.4558 12.355 22.5297 12.5339 22.5296 12.7203C22.5295 12.9068 22.4553 13.0855 22.3233 13.2173C22.1914 13.349 22.0126 13.423 21.8261 13.4228V13.4228ZM21.8261 10.5468C21.2497 10.5473 20.697 10.7766 20.2894 11.1842C19.8818 11.5917 19.6526 12.1444 19.6521 12.7208C19.6521 12.9538 19.6911 13.1858 19.7671 13.4118L12.5861 17.2348C12.387 16.9457 12.1206 16.7093 11.8098 16.5461C11.499 16.3829 11.1532 16.2977 10.8021 16.2978C9.9731 16.2978 9.2181 16.7728 8.8521 17.5138L2.4011 14.1118C1.7191 13.7538 1.2091 12.6318 1.2631 11.6098C1.2911 11.0768 1.4751 10.6628 1.7561 10.5028C1.9341 10.4028 2.1481 10.4108 2.3761 10.5298L2.4181 10.5528C4.1281 11.4528 9.7221 14.3998 9.9581 14.5088C10.3211 14.6778 10.5231 14.7458 11.1431 14.4518L22.7071 8.43782C22.8771 8.37382 23.0751 8.21082 23.0751 7.96382C23.0751 7.62182 22.7211 7.48682 22.7201 7.48682C22.0621 7.17182 21.0511 6.69882 20.0651 6.23682C17.9571 5.24982 15.5681 4.13182 14.5191 3.58182C13.6131 3.10782 12.8841 3.50782 12.7541 3.58782L12.5021 3.71282C7.7801 6.04782 1.4601 9.17782 1.1001 9.39682C0.457104 9.78882 0.0581037 10.5698 0.00610369 11.5388C-0.0738963 13.0758 0.709104 14.6788 1.8301 15.2658L8.6521 18.7838C8.72725 19.3006 8.98582 19.7731 9.38057 20.115C9.77532 20.4568 10.2799 20.6453 10.8021 20.6458C11.3724 20.6449 11.9196 20.4201 12.326 20.0199C12.7323 19.6197 12.9654 19.0761 12.9751 18.5058L20.4891 14.4328C20.8691 14.7308 21.3421 14.8938 21.8261 14.8938C22.4025 14.8933 22.9552 14.6641 23.3628 14.2565C23.7704 13.8489 23.9996 13.2962 24.0001 12.7198C23.9996 12.1434 23.7704 11.5907 23.3628 11.1832C22.9552 10.7756 22.4025 10.5463 21.8261 10.5458" fill="white"/>
</svg>
