<svg width="20" height="20" viewBox="0 0 20 20" fill="none" xmlns="http://www.w3.org/2000/svg">
<path fill-rule="evenodd" clip-rule="evenodd" d="M9.99667 0.5C7.63749 0.501224 5.35566 1.3368 3.5592 2.85732C1.76275 4.37784 0.568814 6.48416 0.190885 8.79963C-0.187044 11.1151 0.275672 13.4887 1.49631 15.4961C2.71694 17.5035 4.61589 19.0137 6.8536 19.7567C7.34727 19.8484 7.53323 19.5424 7.53323 19.2822C7.53323 19.0221 7.52335 18.2678 7.52006 17.4431C4.75547 18.0403 4.1713 16.2765 4.1713 16.2765C3.72041 15.1311 3.06875 14.8301 3.06875 14.8301C2.16697 14.2181 3.13623 14.2296 3.13623 14.2296C4.1351 14.2999 4.66004 15.2489 4.66004 15.2489C5.54536 16.7592 6.98524 16.3223 7.55132 16.0671C7.64019 15.4273 7.89855 14.9921 8.18323 14.745C5.97486 14.4963 3.65458 13.6487 3.65458 9.86248C3.64089 8.88055 4.00735 7.93095 4.67814 7.21016C4.57611 6.96146 4.23547 5.95681 4.77522 4.5922C4.77522 4.5922 5.60954 4.32713 7.50855 5.60503C9.13739 5.16212 10.8559 5.16212 12.4848 5.60503C14.3822 4.32713 15.2148 4.5922 15.2148 4.5922C15.7562 5.95354 15.4156 6.95818 15.3136 7.21016C15.9865 7.93107 16.3537 8.88232 16.3388 9.86576C16.3388 13.6602 14.0135 14.4963 11.8019 14.7401C12.1573 15.0477 12.4749 15.6482 12.4749 16.571C12.4749 17.8931 12.4634 18.9566 12.4634 19.2822C12.4634 19.5457 12.6428 19.8533 13.1463 19.7567C15.3843 19.0136 17.2834 17.5031 18.504 15.4954C19.7247 13.4877 20.1871 11.1137 19.8088 8.79801C19.4304 6.48233 18.2359 4.37599 16.4388 2.85573C14.6418 1.33548 12.3594 0.500448 9.99996 0.5H9.99667Z" fill="white"/>
<path d="M3.82229 14.6876C3.8009 14.7367 3.72191 14.7514 3.65773 14.717C3.59355 14.6827 3.54584 14.6189 3.56887 14.5681C3.59191 14.5174 3.66925 14.5043 3.73343 14.5387C3.79761 14.573 3.84697 14.6385 3.82229 14.6876Z" fill="white"/>
<path d="M4.22539 15.1342C4.19131 15.1513 4.15232 15.1561 4.1151 15.1477C4.07788 15.1394 4.04473 15.1184 4.02134 15.0884C3.95716 15.0197 3.94399 14.9248 3.99336 14.8822C4.04272 14.8397 4.13159 14.8593 4.19577 14.9281C4.25995 14.9968 4.27476 15.0917 4.22539 15.1342Z" fill="white"/>
<path d="M4.61725 15.7019C4.55636 15.7445 4.45268 15.7019 4.39509 15.6169C4.37916 15.6016 4.3665 15.5833 4.35784 15.5631C4.34919 15.5428 4.34473 15.5211 4.34473 15.4991C4.34473 15.4771 4.34919 15.4553 4.35784 15.4351C4.3665 15.4148 4.37916 15.3965 4.39509 15.3813C4.45597 15.3403 4.55965 15.3812 4.61725 15.4647C4.67484 15.5481 4.67649 15.6594 4.61725 15.7019V15.7019Z" fill="white"/>
<path d="M5.14834 16.2522C5.09404 16.3127 4.98379 16.2963 4.89328 16.2145C4.80277 16.1327 4.78138 16.0214 4.83568 15.9625C4.88998 15.9036 5.00024 15.92 5.09404 16.0002C5.18784 16.0803 5.20594 16.1932 5.14834 16.2522V16.2522Z" fill="white"/>
<path d="M5.89378 16.5728C5.86909 16.6498 5.75719 16.6841 5.64529 16.6514C5.53339 16.6187 5.45934 16.527 5.48073 16.4485C5.50213 16.37 5.61567 16.334 5.72922 16.37C5.84276 16.406 5.91517 16.4927 5.89378 16.5728Z" fill="white"/>
<path d="M6.70696 16.6284C6.70696 16.7086 6.61482 16.7773 6.49633 16.7789C6.37785 16.7806 6.28076 16.7151 6.28076 16.6349C6.28076 16.5548 6.37291 16.486 6.49139 16.4844C6.60987 16.4828 6.70696 16.5466 6.70696 16.6284Z" fill="white"/>
<path d="M7.46365 16.5021C7.47846 16.5823 7.39618 16.6657 7.2777 16.6854C7.15921 16.705 7.05554 16.6576 7.04073 16.579C7.02592 16.5005 7.11149 16.4154 7.22668 16.3941C7.34187 16.3729 7.44884 16.4219 7.46365 16.5021Z" fill="white"/>
</svg>
