<svg width="442" height="60" viewBox="0 0 442 60" fill="none" xmlns="http://www.w3.org/2000/svg">
<path d="M138.047 20.4503C137.196 18.0734 135.859 15.9144 134.118 14.1212C132.404 12.4827 130.381 11.2169 128.18 10.4011C125.945 9.508 123.607 8.88916 121.227 8.56567C118.725 8.26328 116.208 8.12264 113.685 8.1367H97.0986V51.8636H113.664C116.188 51.8777 118.704 51.73 121.207 51.4276C123.593 51.1041 125.924 50.4783 128.159 49.5641C130.36 48.7272 132.376 47.4544 134.097 45.8158C135.839 44.0226 137.176 41.8637 138.026 39.4868C140.097 33.3335 140.097 26.6528 138.026 20.4995L138.047 20.4503ZM131.361 37.6513C131.252 37.9467 131.142 38.2209 131.025 38.4811C130.415 39.7821 129.565 40.9495 128.516 41.9129C127.275 43.1436 125.766 44.0718 124.121 44.6133C122.516 45.2111 120.85 45.6049 119.157 45.7877C117.641 45.9354 115.817 46.0127 113.671 46.0057H104.072V13.6571H113.671C115.831 13.6571 117.669 13.7344 119.157 13.8751C120.85 14.0649 122.516 14.4658 124.121 15.0565C125.76 15.598 127.261 16.5052 128.516 17.7217C129.538 18.7414 130.36 19.944 130.943 21.2801C131.087 21.6036 131.231 21.9411 131.361 22.3138C132.897 27.2998 132.897 32.6514 131.361 37.6373" fill="white"/>
<path d="M163.79 28.8575V32.76H161.817V28.8575L148.175 8.13574H140.59L159.268 35.9875V51.8646H166.02V35.9875L185.094 8.13574H177.509L163.79 28.8575Z" fill="white"/>
<path d="M234.654 13.2742H252.416V51.8646H258.171V13.2742H276.123V8.13574H234.654V13.2742Z" fill="white"/>
<path d="M320.161 14.2918C315.809 10.1878 309.909 8.13574 302.456 8.13574C295.002 8.13574 289.082 10.1878 284.681 14.2918C280.322 18.3959 278.146 23.6217 278.146 29.9762C278.146 36.3307 280.322 41.5702 284.681 45.7085C289.033 49.8125 294.96 51.8646 302.456 51.8646C309.951 51.8646 315.857 49.8125 320.161 45.7085C324.52 41.6044 326.696 36.358 326.696 29.9762C326.696 23.5944 324.52 18.3617 320.161 14.2918ZM315.263 42.2268C312.334 45.2844 308.065 46.8166 302.456 46.8097H301.979C296.605 46.7208 292.474 45.2091 289.614 42.2405C286.754 39.2719 285.186 35.0994 285.186 29.9899C285.186 24.8803 286.664 20.8652 289.614 17.8077C292.563 14.7501 296.605 13.3274 301.979 13.2385H302.456C308.072 13.2385 312.341 14.7706 315.263 17.8282C318.185 20.8857 319.65 24.9487 319.656 30.0104C319.656 35.12 318.192 39.2035 315.263 42.261" fill="white"/>
<path d="M368.64 15.4529C367.634 13.5191 366.044 11.9439 364.096 10.9594C361.964 9.86949 359.671 9.1241 357.3 8.75843C354.317 8.30838 351.299 8.10446 348.282 8.13962H333.776V51.8646H340.107V37.1607H348.31C351.328 37.1958 354.345 36.9919 357.328 36.5418C359.692 36.1762 361.992 35.4308 364.124 34.3408C366.072 33.3563 367.662 31.7812 368.668 29.8474C370.694 25.2625 370.694 20.0378 368.668 15.4529H368.64ZM362.02 27.5198C361.338 28.7856 360.248 29.7771 358.918 30.3326C357.49 30.9584 355.985 31.3874 354.444 31.6054C352.481 31.8515 350.512 31.964 348.535 31.9429H340.107V13.3433H348.549C350.526 13.3222 352.495 13.4347 354.458 13.6879C355.999 13.9059 357.504 14.3348 358.932 14.9607C360.262 15.5162 361.352 16.5077 362.034 17.7734C363.364 20.8816 363.364 24.4046 362.034 27.5128" fill="white"/>
<path d="M425.967 8.13574H411.479L395.474 51.8646H402.495L408.48 35.3617H429.021L435.006 51.8646H442L425.967 8.13574ZM410.326 30.1584L417.752 9.81627H419.694L427.12 30.1584H410.326Z" fill="white"/>
<path d="M387.382 8.13574H381.313V51.8646H387.382V8.13574Z" fill="white"/>
<path d="M213.609 27.4183H204.096V27.3698C198.619 27.3698 194.162 24.2161 194.162 20.3415C194.162 16.467 198.619 13.3203 204.096 13.3203V13.2717H227.735V8.13574H204.116C195.283 8.13574 188.128 13.5975 188.128 20.3415C188.128 27.0856 195.29 32.5543 204.116 32.5543H213.629V32.6305C219.106 32.6305 223.563 35.7773 223.563 39.6518C223.563 43.5264 219.106 46.68 213.629 46.68V46.7286H189.772V51.8646H213.609C222.442 51.8646 229.597 46.3959 229.597 39.6518C229.597 32.9078 222.442 27.4391 213.609 27.4391" fill="white"/>
<path d="M36.908 0H0L19.6067 23.5696C20.7849 24.994 22.5318 25.8138 24.3701 25.8138H32.2006L17.6009 8.25961H36.5221C48.146 8.25961 57.962 17.4056 58.3987 29.1238C58.6679 36.1691 55.5245 42.9018 49.969 47.1802L40.9604 36.3484C39.7822 34.924 38.0354 34.1042 36.1971 34.1042H28.3666L42.3721 50.9974C40.5897 51.4688 38.7514 51.7096 36.908 51.7096H9.79576C7.95746 51.7096 6.21566 52.5295 5.03245 53.9488L0 60H36.4611C52.7975 60 66.4222 46.8933 66.6304 30.415C66.8386 13.8395 53.6913 0.230572 37.2584 0.0204953C37.1416 0.0204953 37.0248 0.0204953 36.908 0.0153715" fill="#4CADE6"/>
</svg>
