<svg width="20" height="20" viewBox="0 0 20 20" fill="none" xmlns="http://www.w3.org/2000/svg">
<path d="M11.2812 10.1897C11.2812 13.332 8.75578 15.8793 5.6407 15.8793C2.52561 15.8793 0 13.3314 0 10.1897C0 7.04806 2.52542 4.5 5.6407 4.5C8.75598 4.5 11.2812 7.04749 11.2812 10.1897Z" fill="white"/>
<path d="M17.4688 10.19C17.4688 13.1477 16.2061 15.5464 14.6485 15.5464C13.0908 15.5464 11.8281 13.1477 11.8281 10.19C11.8281 7.23219 13.0906 4.8335 14.6483 4.8335C16.2059 4.8335 17.4686 7.23142 17.4686 10.19" fill="white"/>
<path d="M19.9998 10.1897C19.9998 12.8391 19.5557 14.9882 19.0078 14.9882C18.4599 14.9882 18.0161 12.8397 18.0161 10.1897C18.0161 7.53965 18.4601 5.39111 19.0078 5.39111C19.5555 5.39111 19.9998 7.53946 19.9998 10.1897Z" fill="white"/>
</svg>
