<svg width="20" height="20" viewBox="0 0 20 20" fill="none" xmlns="http://www.w3.org/2000/svg">
<path fill-rule="evenodd" clip-rule="evenodd" d="M1.6975 9.41086C6.8654 7.15929 10.3115 5.67491 12.0357 4.95774C16.9588 2.91006 17.9818 2.55435 18.6486 2.54261C18.7952 2.54002 19.1231 2.57637 19.3355 2.74871C19.5148 2.89423 19.5642 3.09082 19.5878 3.22879C19.6114 3.36676 19.6408 3.68107 19.6174 3.92666C19.3507 6.72978 18.1963 13.5322 17.609 16.6718C17.3605 18.0002 16.8712 18.4456 16.3975 18.4892C15.368 18.584 14.5863 17.8089 13.5892 17.1553C12.029 16.1325 11.1475 15.4959 9.63306 14.4978C7.88281 13.3444 9.01742 12.7105 10.0149 11.6745C10.2759 11.4034 14.8118 7.2777 14.8996 6.90343C14.9105 6.85662 14.9207 6.68215 14.8171 6.59001C14.7134 6.49788 14.5604 6.52939 14.45 6.55445C14.2936 6.58996 11.801 8.23742 6.97251 11.4968C6.26502 11.9826 5.6242 12.2193 5.05004 12.2069C4.41708 12.1933 3.19952 11.849 2.29439 11.5548C1.1842 11.1939 0.301855 11.0031 0.378687 10.3903C0.418707 10.071 0.85831 9.74457 1.6975 9.41086Z" fill="white"/>
</svg>
