<svg width="60" height="60" viewBox="0 0 60 60" fill="none" xmlns="http://www.w3.org/2000/svg">
<path d="M30 60C46.6251 60 60 46.6251 60 30C60 13.3749 46.6251 0 30 0C13.3749 0 0 13.3749 0 30C0 46.6251 13.3749 60 30 60Z" fill="#9BC9E4"/>
<g clip-path="url(#clip0_1071_58959)">
<path d="M40 23.2C39.3 22.8 38.4 22.8 37.6 23.2L32 26.5L28.2 28.6L22.7 31.9C22 32.3 21.1 32.3 20.3 31.9L16 29.3C15.3 28.9 14.8 28.1 14.8 27.2V22.2C14.8 21.4 15.2 20.6 16 20.1L20.3 17.6C21 17.2 21.9 17.2 22.7 17.6L27 20.2C27.7 20.6 28.2 21.4 28.2 22.3V25.6L32 23.4V20C32 19.2 31.6 18.4 30.8 17.9L22.8 13.2C22.1 12.8 21.2 12.8 20.4 13.2L12.2 18C11.4 18.4 11 19.2 11 20V29.4C11 30.2 11.4 31 12.2 31.5L20.3 36.2C21 36.6 21.9 36.6 22.7 36.2L28.2 33L32 30.8L37.5 27.6C38.2 27.2 39.1 27.2 39.9 27.6L44.2 30.1C44.9 30.5 45.4 31.3 45.4 32.2V37.2C45.4 38 45 38.8 44.2 39.3L40 41.8C39.3 42.2 38.4 42.2 37.6 41.8L33.3 39.3C32.6 38.9 32.1 38.1 32.1 37.2V34L28.3 36.2V39.5C28.3 40.3 28.7 41.1 29.5 41.6L37.6 46.3C38.3 46.7 39.2 46.7 40 46.3L48.1 41.6C48.8 41.2 49.3 40.4 49.3 39.5V30C49.3 29.2 48.9 28.4 48.1 27.9L40 23.2Z" fill="#DBE6EC"/>
</g>
<defs>
<clipPath id="clip0_1071_58959">
<rect width="38.4" height="33.5" fill="white" transform="translate(11 13)"/>
</clipPath>
</defs>
</svg>
