<svg width="60" height="60" viewBox="0 0 60 60" fill="none" xmlns="http://www.w3.org/2000/svg">
<circle cx="30" cy="30" r="30" fill="#8191B9"/>
<path d="M37.53 23.53L23.53 37.53C23.51 37.55 23.5 37.56 23.48 37.57C23.1 37.25 22.75 36.9 22.43 36.52C20.91 34.77 20 32.49 20 30C20 24.48 24.48 20 30 20C32.49 20 34.77 20.91 36.52 22.43C36.9 22.75 37.25 23.1 37.57 23.48C37.56 23.5 37.55 23.51 37.53 23.53Z" fill="#171D2D"/>
<path d="M39.9999 30C39.9999 35.49 35.4899 40 29.9999 40C28.4999 40 27.0799 39.67 25.7999 39.07C25.1799 38.78 25.0599 37.95 25.5399 37.46L37.4599 25.54C37.9399 25.06 38.7799 25.18 39.0699 25.8C39.6699 27.07 39.9999 28.5 39.9999 30Z" fill="#171D2D"/>
<path d="M39.7699 20.23C39.4699 19.93 38.9799 19.93 38.6799 20.23L20.2299 38.69C19.9299 38.99 19.9299 39.48 20.2299 39.78C20.3799 39.92 20.5699 40 20.7699 40C20.9699 40 21.1599 39.92 21.3099 39.77L39.7699 21.31C40.0799 21.01 40.0799 20.53 39.7699 20.23Z" fill="#171D2D"/>
</svg>
