<svg width="60" height="60" viewBox="0 0 60 60" fill="none" xmlns="http://www.w3.org/2000/svg">
<path d="M30 60C46.6251 60 60 46.6251 60 30C60 13.3749 46.6251 0 30 0C13.3749 0 0 13.3749 0 30C0 46.6251 13.3749 60 30 60Z" fill="#2D3741"/>
<path d="M30 50.8334C18.4938 50.8334 9.16669 41.5063 9.16669 30C9.16669 18.4938 18.4938 9.16669 30 9.16669C41.5063 9.16669 50.8334 18.4938 50.8334 30C50.8334 41.5063 41.5063 50.8334 30 50.8334ZM30 46.6667C34.4203 46.6667 38.6595 44.9107 41.7851 41.7851C44.9107 38.6595 46.6667 34.4203 46.6667 30C46.6667 25.5797 44.9107 21.3405 41.7851 18.2149C38.6595 15.0893 34.4203 13.3334 30 13.3334C25.5797 13.3334 21.3405 15.0893 18.2149 18.2149C15.0893 21.3405 13.3334 25.5797 13.3334 30C13.3334 34.4203 15.0893 38.6595 18.2149 41.7851C21.3405 44.9107 25.5797 46.6667 30 46.6667ZM22.7563 19.8104L40.1896 37.2438C39.3782 38.3826 38.3826 39.3782 37.2438 40.1896L19.8104 22.7563C20.6221 21.6182 21.6176 20.6233 22.7563 19.8125V19.8104Z" fill="#151718"/>
</svg>
