<svg width="292" height="65" viewBox="0 0 292 65" fill="none" xmlns="http://www.w3.org/2000/svg">
<rect x="10.5" y="10.5" width="271" height="44" stroke="white"/>
<mask id="path-2-inside-1_188_6270" fill="white">
<path fill-rule="evenodd" clip-rule="evenodd" d="M227 65L292 7.37235e-06L227 0H65L0 65L227 65Z"/>
</mask>
<path fill-rule="evenodd" clip-rule="evenodd" d="M227 65L292 7.37235e-06L227 0H65L0 65L227 65Z" fill="#523880"/>
<path d="M292 7.37235e-06L292.707 0.707114L294.414 -0.999992L292 -0.999993V7.37235e-06ZM227 65V66H227.414L227.707 65.7071L227 65ZM227 0V-1V0ZM65 0V-1H64.5858L64.2929 -0.707107L65 0ZM0 65L-0.707107 64.2929L-2.41421 66H-3.36097e-08L0 65ZM291.293 -0.7071L226.293 64.2929L227.707 65.7071L292.707 0.707114L291.293 -0.7071ZM227 1L292 1.00001V-0.999993L227 -1V1ZM227 -1H65V1H227V-1ZM64.2929 -0.707107L-0.707107 64.2929L0.707107 65.7071L65.7071 0.707107L64.2929 -0.707107ZM-3.36097e-08 66L227 66V64L3.36097e-08 64L-3.36097e-08 66Z" fill="#8F5AE8" mask="url(#path-2-inside-1_188_6270)"/>
<path d="M89.6562 26.4375H87.4609C87.4401 26.7812 87.3828 27.0755 87.2891 27.3203C87.1953 27.5651 87.0677 27.7656 86.9062 27.9219C86.7448 28.0781 86.5495 28.1927 86.3203 28.2656C86.0911 28.3385 85.8333 28.375 85.5469 28.375C85.3333 28.375 85.138 28.3516 84.9609 28.3047C84.7891 28.2526 84.6328 28.1745 84.4922 28.0703C84.362 27.9766 84.2448 27.8594 84.1406 27.7188C84.0417 27.5781 83.9557 27.4167 83.8828 27.2344C83.7786 26.9688 83.7005 26.6589 83.6484 26.3047C83.6016 25.9453 83.5781 25.5391 83.5781 25.0859V23.5391C83.5781 23.2057 83.5938 22.8958 83.625 22.6094C83.6562 22.3177 83.7057 22.0521 83.7734 21.8125C83.862 21.5052 83.9792 21.237 84.125 21.0078C84.276 20.7734 84.4583 20.5938 84.6719 20.4688C84.7969 20.3958 84.9323 20.3411 85.0781 20.3047C85.2292 20.2682 85.3906 20.25 85.5625 20.25C85.8854 20.25 86.1615 20.2943 86.3906 20.3828C86.625 20.4661 86.8203 20.5911 86.9766 20.7578C87.1276 20.9297 87.2422 21.1432 87.3203 21.3984C87.4036 21.6536 87.4557 21.9505 87.4766 22.2891H89.6641C89.612 21.6953 89.487 21.1615 89.2891 20.6875C89.0911 20.2135 88.8203 19.8125 88.4766 19.4844C88.1328 19.1562 87.7161 18.9036 87.2266 18.7266C86.7422 18.5495 86.1875 18.4609 85.5625 18.4609C85.1406 18.4609 84.7448 18.5156 84.375 18.625C84.0104 18.7292 83.6745 18.8802 83.3672 19.0781C83.0234 19.3125 82.7161 19.599 82.4453 19.9375C82.1745 20.276 81.9557 20.6615 81.7891 21.0938C81.6432 21.4479 81.5339 21.8333 81.4609 22.25C81.388 22.6615 81.3516 23.0964 81.3516 23.5547V25.0859C81.3516 25.5755 81.3906 26.0391 81.4688 26.4766C81.5521 26.9141 81.6693 27.3151 81.8203 27.6797C81.9766 28.0443 82.1667 28.3776 82.3906 28.6797C82.6198 28.9818 82.8802 29.2396 83.1719 29.4531C83.4896 29.6823 83.8464 29.8594 84.2422 29.9844C84.6432 30.1042 85.0781 30.1641 85.5469 30.1641C86.1406 30.1641 86.6823 30.0781 87.1719 29.9062C87.6615 29.7292 88.0833 29.4792 88.4375 29.1562C88.7917 28.8333 89.0729 28.4427 89.2812 27.9844C89.4948 27.526 89.6198 27.0104 89.6562 26.4375ZM91.1484 25.6953V25.8594C91.1484 26.4792 91.237 27.0521 91.4141 27.5781C91.5911 28.099 91.8516 28.5521 92.1953 28.9375C92.5339 29.3229 92.9505 29.625 93.4453 29.8438C93.9453 30.0573 94.513 30.1641 95.1484 30.1641C95.7786 30.1641 96.3411 30.0573 96.8359 29.8438C97.3307 29.625 97.7474 29.3229 98.0859 28.9375C98.4245 28.5521 98.6823 28.099 98.8594 27.5781C99.0365 27.0521 99.125 26.4792 99.125 25.8594V25.6953C99.125 25.0807 99.0365 24.513 98.8594 23.9922C98.6823 23.4661 98.4245 23.0104 98.0859 22.625C97.7422 22.2396 97.3229 21.9375 96.8281 21.7188C96.3333 21.5 95.7682 21.3906 95.1328 21.3906C94.4974 21.3906 93.9323 21.5 93.4375 21.7188C92.9479 21.9375 92.5339 22.2396 92.1953 22.625C91.8516 23.0104 91.5911 23.4661 91.4141 23.9922C91.237 24.513 91.1484 25.0807 91.1484 25.6953ZM93.3203 25.8594V25.6953C93.3203 25.3516 93.3542 25.026 93.4219 24.7188C93.4896 24.4115 93.5964 24.1406 93.7422 23.9062C93.888 23.6719 94.0755 23.487 94.3047 23.3516C94.5339 23.2161 94.8099 23.1484 95.1328 23.1484C95.4609 23.1484 95.7396 23.2161 95.9688 23.3516C96.1979 23.487 96.3854 23.6719 96.5312 23.9062C96.6719 24.1406 96.776 24.4115 96.8438 24.7188C96.9115 25.026 96.9453 25.3516 96.9453 25.6953V25.8594C96.9453 26.2135 96.9115 26.5469 96.8438 26.8594C96.776 27.1667 96.6719 27.4349 96.5312 27.6641C96.3854 27.8984 96.1979 28.0833 95.9688 28.2188C95.7396 28.3542 95.4661 28.4219 95.1484 28.4219C94.8203 28.4219 94.5391 28.3542 94.3047 28.2188C94.0755 28.0833 93.888 27.8984 93.7422 27.6641C93.5964 27.4349 93.4896 27.1667 93.4219 26.8594C93.3542 26.5469 93.3203 26.2135 93.3203 25.8594ZM101.055 30H103.234V23.9922C103.307 23.8776 103.388 23.7734 103.477 23.6797C103.565 23.5859 103.664 23.5052 103.773 23.4375C103.909 23.3438 104.062 23.2734 104.234 23.2266C104.411 23.1797 104.604 23.1562 104.812 23.1562C105.062 23.1562 105.286 23.1823 105.484 23.2344C105.682 23.2812 105.852 23.3672 105.992 23.4922C106.133 23.6172 106.24 23.7891 106.312 24.0078C106.391 24.2214 106.43 24.4948 106.43 24.8281V30H108.602V24.7969C108.602 24.1823 108.529 23.6615 108.383 23.2344C108.242 22.8021 108.044 22.4479 107.789 22.1719C107.529 21.901 107.221 21.7031 106.867 21.5781C106.513 21.4531 106.122 21.3906 105.695 21.3906C105.362 21.3906 105.047 21.4375 104.75 21.5312C104.453 21.625 104.18 21.7604 103.93 21.9375C103.784 22.0417 103.646 22.1589 103.516 22.2891C103.385 22.4193 103.266 22.5625 103.156 22.7188L103.023 21.5469H101.055V30ZM110.664 30H112.844V23.9922C112.917 23.8776 112.997 23.7734 113.086 23.6797C113.174 23.5859 113.273 23.5052 113.383 23.4375C113.518 23.3438 113.672 23.2734 113.844 23.2266C114.021 23.1797 114.214 23.1562 114.422 23.1562C114.672 23.1562 114.896 23.1823 115.094 23.2344C115.292 23.2812 115.461 23.3672 115.602 23.4922C115.742 23.6172 115.849 23.7891 115.922 24.0078C116 24.2214 116.039 24.4948 116.039 24.8281V30H118.211V24.7969C118.211 24.1823 118.138 23.6615 117.992 23.2344C117.852 22.8021 117.654 22.4479 117.398 22.1719C117.138 21.901 116.831 21.7031 116.477 21.5781C116.122 21.4531 115.732 21.3906 115.305 21.3906C114.971 21.3906 114.656 21.4375 114.359 21.5312C114.062 21.625 113.789 21.7604 113.539 21.9375C113.393 22.0417 113.255 22.1589 113.125 22.2891C112.995 22.4193 112.875 22.5625 112.766 22.7188L112.633 21.5469H110.664V30ZM124.375 30.1562C125.193 30.1562 125.901 29.9974 126.5 29.6797C127.099 29.362 127.536 29.0078 127.812 28.6172L126.727 27.4453C126.477 27.7682 126.151 28.0104 125.75 28.1719C125.349 28.3333 124.935 28.4141 124.508 28.4141C124.206 28.4141 123.927 28.3672 123.672 28.2734C123.417 28.1797 123.19 28.0469 122.992 27.875C122.799 27.7083 122.646 27.5234 122.531 27.3203C122.417 27.112 122.323 26.8385 122.25 26.5V26.4766H127.984V25.5547C127.984 24.9349 127.898 24.3698 127.727 23.8594C127.555 23.3438 127.305 22.9036 126.977 22.5391C126.643 22.1745 126.237 21.8932 125.758 21.6953C125.284 21.4922 124.742 21.3906 124.133 21.3906C123.544 21.3906 123 21.4974 122.5 21.7109C122 21.9245 121.568 22.224 121.203 22.6094C120.839 22.9948 120.555 23.4557 120.352 23.9922C120.148 24.5234 120.047 25.112 120.047 25.7578V26.0703C120.047 26.638 120.148 27.1719 120.352 27.6719C120.56 28.1667 120.854 28.5964 121.234 28.9609C121.615 29.3307 122.07 29.6224 122.602 29.8359C123.133 30.0495 123.724 30.1562 124.375 30.1562ZM124.117 23.1484C124.393 23.1484 124.635 23.1927 124.844 23.2812C125.057 23.3646 125.237 23.4792 125.383 23.625C125.529 23.776 125.643 23.9531 125.727 24.1562C125.81 24.3594 125.852 24.5755 125.852 24.8047V24.9766H122.289C122.341 24.7005 122.419 24.4505 122.523 24.2266C122.628 24.0026 122.758 23.8099 122.914 23.6484C123.065 23.487 123.242 23.3646 123.445 23.2812C123.648 23.1927 123.872 23.1484 124.117 23.1484ZM133.625 28.4219C133.276 28.4219 132.987 28.3516 132.758 28.2109C132.534 28.0703 132.357 27.8828 132.227 27.6484C132.091 27.4193 131.997 27.1536 131.945 26.8516C131.893 26.5443 131.867 26.2266 131.867 25.8984V25.6641C131.867 25.3411 131.893 25.0286 131.945 24.7266C132.003 24.4245 132.099 24.1562 132.234 23.9219C132.365 23.6875 132.542 23.5 132.766 23.3594C132.99 23.2188 133.273 23.1484 133.617 23.1484C133.852 23.1484 134.068 23.1901 134.266 23.2734C134.464 23.3516 134.633 23.4583 134.773 23.5938C134.914 23.7292 135.021 23.8906 135.094 24.0781C135.167 24.2656 135.198 24.4635 135.188 24.6719H137.234C137.245 24.1719 137.161 23.7214 136.984 23.3203C136.807 22.9141 136.56 22.5677 136.242 22.2812C135.919 22 135.536 21.7812 135.094 21.625C134.651 21.4688 134.169 21.3906 133.648 21.3906C132.997 21.3906 132.424 21.5026 131.93 21.7266C131.44 21.9505 131.029 22.2552 130.695 22.6406C130.362 23.026 130.112 23.4792 129.945 24C129.779 24.5156 129.695 25.0703 129.695 25.6641V25.8984C129.695 26.4922 129.779 27.0495 129.945 27.5703C130.117 28.0859 130.37 28.5365 130.703 28.9219C131.031 29.3073 131.443 29.612 131.938 29.8359C132.432 30.0547 133.008 30.1641 133.664 30.1641C134.148 30.1641 134.607 30.0885 135.039 29.9375C135.477 29.7812 135.859 29.5677 136.188 29.2969C136.516 29.026 136.773 28.7031 136.961 28.3281C137.154 27.9531 137.245 27.5469 137.234 27.1094H135.188C135.198 27.3073 135.161 27.487 135.078 27.6484C135 27.8099 134.888 27.9479 134.742 28.0625C134.596 28.1771 134.427 28.2656 134.234 28.3281C134.042 28.3906 133.839 28.4219 133.625 28.4219ZM143.477 19.4766H141.305V21.5469H139.375V23.1484H141.305V26.9922C141.305 27.5495 141.378 28.0286 141.523 28.4297C141.669 28.8255 141.878 29.151 142.148 29.4062C142.414 29.6667 142.734 29.8594 143.109 29.9844C143.49 30.1042 143.911 30.1641 144.375 30.1641C144.615 30.1641 144.857 30.151 145.102 30.125C145.352 30.1042 145.591 30.0729 145.82 30.0312C146.049 29.9896 146.266 29.9375 146.469 29.875C146.672 29.8073 146.849 29.7292 147 29.6406L146.789 28.1484C146.69 28.1745 146.57 28.2005 146.43 28.2266C146.294 28.2526 146.148 28.276 145.992 28.2969C145.831 28.3229 145.661 28.3438 145.484 28.3594C145.312 28.375 145.143 28.3828 144.977 28.3828C144.747 28.3828 144.539 28.3568 144.352 28.3047C144.169 28.2526 144.013 28.1641 143.883 28.0391C143.753 27.9193 143.651 27.7578 143.578 27.5547C143.51 27.3464 143.477 27.0885 143.477 26.7812V23.1484H146.633V21.5469H143.477V19.4766ZM159.336 30H161.242L162.141 25.4844L162.312 24.625L162.492 25.4844L163.422 30H165.328L166.844 21.5469H164.852L164.227 26.5312L164.117 27.3516L163.969 26.5469L163.055 21.5469H161.602L160.688 26.5703L160.539 27.375L160.438 26.5703L159.805 21.5469H157.82L159.336 30ZM173.602 30H175.805V29.8672C175.695 29.6536 175.612 29.3984 175.555 29.1016C175.497 28.8047 175.469 28.4297 175.469 27.9766V24.3516C175.469 23.862 175.378 23.4323 175.195 23.0625C175.013 22.6875 174.76 22.3776 174.438 22.1328C174.115 21.888 173.732 21.7031 173.289 21.5781C172.852 21.4531 172.378 21.3906 171.867 21.3906C171.299 21.3906 170.794 21.4635 170.352 21.6094C169.914 21.75 169.544 21.9427 169.242 22.1875C168.935 22.4323 168.701 22.7161 168.539 23.0391C168.383 23.362 168.305 23.7031 168.305 24.0625H170.477C170.477 23.9115 170.497 23.7734 170.539 23.6484C170.586 23.5234 170.656 23.4167 170.75 23.3281C170.854 23.2292 170.99 23.1536 171.156 23.1016C171.323 23.0443 171.521 23.0156 171.75 23.0156C172.01 23.0156 172.237 23.0495 172.43 23.1172C172.628 23.1797 172.792 23.2708 172.922 23.3906C173.047 23.5052 173.141 23.6432 173.203 23.8047C173.266 23.9609 173.297 24.138 173.297 24.3359V24.8359H172.086C171.461 24.8359 170.906 24.8932 170.422 25.0078C169.943 25.1172 169.539 25.2786 169.211 25.4922C168.846 25.7266 168.573 26.026 168.391 26.3906C168.208 26.75 168.117 27.1641 168.117 27.6328C168.117 27.9974 168.19 28.3359 168.336 28.6484C168.482 28.9557 168.685 29.2214 168.945 29.4453C169.206 29.6693 169.516 29.8438 169.875 29.9688C170.24 30.0938 170.638 30.1562 171.07 30.1562C171.336 30.1562 171.583 30.1302 171.812 30.0781C172.042 30.0312 172.253 29.9635 172.445 29.875C172.633 29.7917 172.805 29.6927 172.961 29.5781C173.117 29.4635 173.255 29.3411 173.375 29.2109C173.401 29.362 173.432 29.5052 173.469 29.6406C173.505 29.776 173.549 29.8958 173.602 30ZM171.531 28.4766C171.328 28.4766 171.148 28.4531 170.992 28.4062C170.841 28.3542 170.714 28.2865 170.609 28.2031C170.505 28.1146 170.424 28.0078 170.367 27.8828C170.315 27.7526 170.289 27.612 170.289 27.4609C170.289 27.2682 170.326 27.0911 170.398 26.9297C170.471 26.763 170.583 26.6198 170.734 26.5C170.885 26.3854 171.081 26.2969 171.32 26.2344C171.56 26.1667 171.849 26.1328 172.188 26.1328H173.297V27.5859C173.234 27.6953 173.148 27.8047 173.039 27.9141C172.93 28.0182 172.799 28.112 172.648 28.1953C172.497 28.2786 172.328 28.3464 172.141 28.3984C171.953 28.4505 171.75 28.4766 171.531 28.4766ZM178.383 18V19.7734H180.914V28.2344H178.383V30H185.531V28.2344H183.109V18H178.383ZM187.992 18V19.7734H190.523V28.2344H187.992V30H195.141V28.2344H192.719V18H187.992ZM201.25 30.1562C202.068 30.1562 202.776 29.9974 203.375 29.6797C203.974 29.362 204.411 29.0078 204.688 28.6172L203.602 27.4453C203.352 27.7682 203.026 28.0104 202.625 28.1719C202.224 28.3333 201.81 28.4141 201.383 28.4141C201.081 28.4141 200.802 28.3672 200.547 28.2734C200.292 28.1797 200.065 28.0469 199.867 27.875C199.674 27.7083 199.521 27.5234 199.406 27.3203C199.292 27.112 199.198 26.8385 199.125 26.5V26.4766H204.859V25.5547C204.859 24.9349 204.773 24.3698 204.602 23.8594C204.43 23.3438 204.18 22.9036 203.852 22.5391C203.518 22.1745 203.112 21.8932 202.633 21.6953C202.159 21.4922 201.617 21.3906 201.008 21.3906C200.419 21.3906 199.875 21.4974 199.375 21.7109C198.875 21.9245 198.443 22.224 198.078 22.6094C197.714 22.9948 197.43 23.4557 197.227 23.9922C197.023 24.5234 196.922 25.112 196.922 25.7578V26.0703C196.922 26.638 197.023 27.1719 197.227 27.6719C197.435 28.1667 197.729 28.5964 198.109 28.9609C198.49 29.3307 198.945 29.6224 199.477 29.8359C200.008 30.0495 200.599 30.1562 201.25 30.1562ZM200.992 23.1484C201.268 23.1484 201.51 23.1927 201.719 23.2812C201.932 23.3646 202.112 23.4792 202.258 23.625C202.404 23.776 202.518 23.9531 202.602 24.1562C202.685 24.3594 202.727 24.5755 202.727 24.8047V24.9766H199.164C199.216 24.7005 199.294 24.4505 199.398 24.2266C199.503 24.0026 199.633 23.8099 199.789 23.6484C199.94 23.487 200.117 23.3646 200.32 23.2812C200.523 23.1927 200.747 23.1484 200.992 23.1484ZM210.742 19.4766H208.57V21.5469H206.641V23.1484H208.57V26.9922C208.57 27.5495 208.643 28.0286 208.789 28.4297C208.935 28.8255 209.143 29.151 209.414 29.4062C209.68 29.6667 210 29.8594 210.375 29.9844C210.755 30.1042 211.177 30.1641 211.641 30.1641C211.88 30.1641 212.122 30.151 212.367 30.125C212.617 30.1042 212.857 30.0729 213.086 30.0312C213.315 29.9896 213.531 29.9375 213.734 29.875C213.938 29.8073 214.115 29.7292 214.266 29.6406L214.055 28.1484C213.956 28.1745 213.836 28.2005 213.695 28.2266C213.56 28.2526 213.414 28.276 213.258 28.2969C213.096 28.3229 212.927 28.3438 212.75 28.3594C212.578 28.375 212.409 28.3828 212.242 28.3828C212.013 28.3828 211.805 28.3568 211.617 28.3047C211.435 28.2526 211.279 28.1641 211.148 28.0391C211.018 27.9193 210.917 27.7578 210.844 27.5547C210.776 27.3464 210.742 27.0885 210.742 26.7812V23.1484H213.898V21.5469H210.742V19.4766ZM100.234 38.4766H98.0625V40.5469H96.1328V42.1484H98.0625V45.9922C98.0625 46.5495 98.1354 47.0286 98.2812 47.4297C98.4271 47.8255 98.6354 48.151 98.9062 48.4062C99.1719 48.6667 99.4922 48.8594 99.8672 48.9844C100.247 49.1042 100.669 49.1641 101.133 49.1641C101.372 49.1641 101.615 49.151 101.859 49.125C102.109 49.1042 102.349 49.0729 102.578 49.0312C102.807 48.9896 103.023 48.9375 103.227 48.875C103.43 48.8073 103.607 48.7292 103.758 48.6406L103.547 47.1484C103.448 47.1745 103.328 47.2005 103.188 47.2266C103.052 47.2526 102.906 47.276 102.75 47.2969C102.589 47.3229 102.419 47.3438 102.242 47.3594C102.07 47.375 101.901 47.3828 101.734 47.3828C101.505 47.3828 101.297 47.3568 101.109 47.3047C100.927 47.2526 100.771 47.1641 100.641 47.0391C100.51 46.9193 100.409 46.7578 100.336 46.5547C100.268 46.3464 100.234 46.0885 100.234 45.7812V42.1484H103.391V40.5469H100.234V38.4766ZM105.562 44.6953V44.8594C105.562 45.4792 105.651 46.0521 105.828 46.5781C106.005 47.099 106.266 47.5521 106.609 47.9375C106.948 48.3229 107.365 48.625 107.859 48.8438C108.359 49.0573 108.927 49.1641 109.562 49.1641C110.193 49.1641 110.755 49.0573 111.25 48.8438C111.745 48.625 112.161 48.3229 112.5 47.9375C112.839 47.5521 113.096 47.099 113.273 46.5781C113.451 46.0521 113.539 45.4792 113.539 44.8594V44.6953C113.539 44.0807 113.451 43.513 113.273 42.9922C113.096 42.4661 112.839 42.0104 112.5 41.625C112.156 41.2396 111.737 40.9375 111.242 40.7188C110.747 40.5 110.182 40.3906 109.547 40.3906C108.911 40.3906 108.346 40.5 107.852 40.7188C107.362 40.9375 106.948 41.2396 106.609 41.625C106.266 42.0104 106.005 42.4661 105.828 42.9922C105.651 43.513 105.562 44.0807 105.562 44.6953ZM107.734 44.8594V44.6953C107.734 44.3516 107.768 44.026 107.836 43.7188C107.904 43.4115 108.01 43.1406 108.156 42.9062C108.302 42.6719 108.49 42.487 108.719 42.3516C108.948 42.2161 109.224 42.1484 109.547 42.1484C109.875 42.1484 110.154 42.2161 110.383 42.3516C110.612 42.487 110.799 42.6719 110.945 42.9062C111.086 43.1406 111.19 43.4115 111.258 43.7188C111.326 44.026 111.359 44.3516 111.359 44.6953V44.8594C111.359 45.2135 111.326 45.5469 111.258 45.8594C111.19 46.1667 111.086 46.4349 110.945 46.6641C110.799 46.8984 110.612 47.0833 110.383 47.2188C110.154 47.3542 109.88 47.4219 109.562 47.4219C109.234 47.4219 108.953 47.3542 108.719 47.2188C108.49 47.0833 108.302 46.8984 108.156 46.6641C108.01 46.4349 107.904 46.1667 107.836 45.8594C107.768 45.5469 107.734 45.2135 107.734 44.8594ZM128.82 47.4219C128.471 47.4219 128.182 47.3516 127.953 47.2109C127.729 47.0703 127.552 46.8828 127.422 46.6484C127.286 46.4193 127.193 46.1536 127.141 45.8516C127.089 45.5443 127.062 45.2266 127.062 44.8984V44.6641C127.062 44.3411 127.089 44.0286 127.141 43.7266C127.198 43.4245 127.294 43.1562 127.43 42.9219C127.56 42.6875 127.737 42.5 127.961 42.3594C128.185 42.2188 128.469 42.1484 128.812 42.1484C129.047 42.1484 129.263 42.1901 129.461 42.2734C129.659 42.3516 129.828 42.4583 129.969 42.5938C130.109 42.7292 130.216 42.8906 130.289 43.0781C130.362 43.2656 130.393 43.4635 130.383 43.6719H132.43C132.44 43.1719 132.357 42.7214 132.18 42.3203C132.003 41.9141 131.755 41.5677 131.438 41.2812C131.115 41 130.732 40.7812 130.289 40.625C129.846 40.4688 129.365 40.3906 128.844 40.3906C128.193 40.3906 127.62 40.5026 127.125 40.7266C126.635 40.9505 126.224 41.2552 125.891 41.6406C125.557 42.026 125.307 42.4792 125.141 43C124.974 43.5156 124.891 44.0703 124.891 44.6641V44.8984C124.891 45.4922 124.974 46.0495 125.141 46.5703C125.312 47.0859 125.565 47.5365 125.898 47.9219C126.227 48.3073 126.638 48.612 127.133 48.8359C127.628 49.0547 128.203 49.1641 128.859 49.1641C129.344 49.1641 129.802 49.0885 130.234 48.9375C130.672 48.7812 131.055 48.5677 131.383 48.2969C131.711 48.026 131.969 47.7031 132.156 47.3281C132.349 46.9531 132.44 46.5469 132.43 46.1094H130.383C130.393 46.3073 130.357 46.487 130.273 46.6484C130.195 46.8099 130.083 46.9479 129.938 47.0625C129.792 47.1771 129.622 47.2656 129.43 47.3281C129.237 47.3906 129.034 47.4219 128.82 47.4219ZM134.391 44.6953V44.8594C134.391 45.4792 134.479 46.0521 134.656 46.5781C134.833 47.099 135.094 47.5521 135.438 47.9375C135.776 48.3229 136.193 48.625 136.688 48.8438C137.188 49.0573 137.755 49.1641 138.391 49.1641C139.021 49.1641 139.583 49.0573 140.078 48.8438C140.573 48.625 140.99 48.3229 141.328 47.9375C141.667 47.5521 141.924 47.099 142.102 46.5781C142.279 46.0521 142.367 45.4792 142.367 44.8594V44.6953C142.367 44.0807 142.279 43.513 142.102 42.9922C141.924 42.4661 141.667 42.0104 141.328 41.625C140.984 41.2396 140.565 40.9375 140.07 40.7188C139.576 40.5 139.01 40.3906 138.375 40.3906C137.74 40.3906 137.174 40.5 136.68 40.7188C136.19 40.9375 135.776 41.2396 135.438 41.625C135.094 42.0104 134.833 42.4661 134.656 42.9922C134.479 43.513 134.391 44.0807 134.391 44.6953ZM136.562 44.8594V44.6953C136.562 44.3516 136.596 44.026 136.664 43.7188C136.732 43.4115 136.839 43.1406 136.984 42.9062C137.13 42.6719 137.318 42.487 137.547 42.3516C137.776 42.2161 138.052 42.1484 138.375 42.1484C138.703 42.1484 138.982 42.2161 139.211 42.3516C139.44 42.487 139.628 42.6719 139.773 42.9062C139.914 43.1406 140.018 43.4115 140.086 43.7188C140.154 44.026 140.188 44.3516 140.188 44.6953V44.8594C140.188 45.2135 140.154 45.5469 140.086 45.8594C140.018 46.1667 139.914 46.4349 139.773 46.6641C139.628 46.8984 139.44 47.0833 139.211 47.2188C138.982 47.3542 138.708 47.4219 138.391 47.4219C138.062 47.4219 137.781 47.3542 137.547 47.2188C137.318 47.0833 137.13 46.8984 136.984 46.6641C136.839 46.4349 136.732 46.1667 136.664 45.8594C136.596 45.5469 136.562 45.2135 136.562 44.8594ZM144.297 49H146.477V42.9922C146.549 42.8776 146.63 42.7734 146.719 42.6797C146.807 42.5859 146.906 42.5052 147.016 42.4375C147.151 42.3438 147.305 42.2734 147.477 42.2266C147.654 42.1797 147.846 42.1562 148.055 42.1562C148.305 42.1562 148.529 42.1823 148.727 42.2344C148.924 42.2812 149.094 42.3672 149.234 42.4922C149.375 42.6172 149.482 42.7891 149.555 43.0078C149.633 43.2214 149.672 43.4948 149.672 43.8281V49H151.844V43.7969C151.844 43.1823 151.771 42.6615 151.625 42.2344C151.484 41.8021 151.286 41.4479 151.031 41.1719C150.771 40.901 150.464 40.7031 150.109 40.5781C149.755 40.4531 149.365 40.3906 148.938 40.3906C148.604 40.3906 148.289 40.4375 147.992 40.5312C147.695 40.625 147.422 40.7604 147.172 40.9375C147.026 41.0417 146.888 41.1589 146.758 41.2891C146.628 41.4193 146.508 41.5625 146.398 41.7188L146.266 40.5469H144.297V49ZM157.891 38.4766H155.719V40.5469H153.789V42.1484H155.719V45.9922C155.719 46.5495 155.792 47.0286 155.938 47.4297C156.083 47.8255 156.292 48.151 156.562 48.4062C156.828 48.6667 157.148 48.8594 157.523 48.9844C157.904 49.1042 158.326 49.1641 158.789 49.1641C159.029 49.1641 159.271 49.151 159.516 49.125C159.766 49.1042 160.005 49.0729 160.234 49.0312C160.464 48.9896 160.68 48.9375 160.883 48.875C161.086 48.8073 161.263 48.7292 161.414 48.6406L161.203 47.1484C161.104 47.1745 160.984 47.2005 160.844 47.2266C160.708 47.2526 160.562 47.276 160.406 47.2969C160.245 47.3229 160.076 47.3438 159.898 47.3594C159.727 47.375 159.557 47.3828 159.391 47.3828C159.161 47.3828 158.953 47.3568 158.766 47.3047C158.583 47.2526 158.427 47.1641 158.297 47.0391C158.167 46.9193 158.065 46.7578 157.992 46.5547C157.924 46.3464 157.891 46.0885 157.891 45.7812V42.1484H161.047V40.5469H157.891V38.4766ZM164.094 40.5469V42.3203H166.5V47.2344H164.094V49H170.984V47.2344H168.695V40.5469H164.094ZM166.344 38.3828C166.344 38.5495 166.372 38.7057 166.43 38.8516C166.492 38.9922 166.578 39.112 166.688 39.2109C166.797 39.3151 166.927 39.3958 167.078 39.4531C167.234 39.5104 167.406 39.5391 167.594 39.5391C167.979 39.5391 168.284 39.4323 168.508 39.2188C168.737 39 168.852 38.7214 168.852 38.3828C168.852 38.0443 168.737 37.7682 168.508 37.5547C168.284 37.3359 167.979 37.2266 167.594 37.2266C167.406 37.2266 167.234 37.2552 167.078 37.3125C166.927 37.3698 166.797 37.4479 166.688 37.5469C166.578 37.651 166.492 37.776 166.43 37.9219C166.372 38.0625 166.344 38.2161 166.344 38.3828ZM173.125 49H175.305V42.9922C175.378 42.8776 175.458 42.7734 175.547 42.6797C175.635 42.5859 175.734 42.5052 175.844 42.4375C175.979 42.3438 176.133 42.2734 176.305 42.2266C176.482 42.1797 176.674 42.1562 176.883 42.1562C177.133 42.1562 177.357 42.1823 177.555 42.2344C177.753 42.2812 177.922 42.3672 178.062 42.4922C178.203 42.6172 178.31 42.7891 178.383 43.0078C178.461 43.2214 178.5 43.4948 178.5 43.8281V49H180.672V43.7969C180.672 43.1823 180.599 42.6615 180.453 42.2344C180.312 41.8021 180.115 41.4479 179.859 41.1719C179.599 40.901 179.292 40.7031 178.938 40.5781C178.583 40.4531 178.193 40.3906 177.766 40.3906C177.432 40.3906 177.117 40.4375 176.82 40.5312C176.523 40.625 176.25 40.7604 176 40.9375C175.854 41.0417 175.716 41.1589 175.586 41.2891C175.456 41.4193 175.336 41.5625 175.227 41.7188L175.094 40.5469H173.125V49ZM188.25 49H190.219V40.5469H188.039V46.4766C187.971 46.612 187.891 46.7344 187.797 46.8438C187.703 46.9531 187.596 47.0469 187.477 47.125C187.336 47.2135 187.172 47.2812 186.984 47.3281C186.802 47.375 186.596 47.3984 186.367 47.3984C186.112 47.3984 185.896 47.3672 185.719 47.3047C185.542 47.2422 185.398 47.138 185.289 46.9922C185.18 46.8516 185.099 46.6641 185.047 46.4297C185 46.1953 184.977 45.9062 184.977 45.5625V40.5469H182.805V45.5469C182.805 46.1875 182.875 46.737 183.016 47.1953C183.161 47.6484 183.365 48.0208 183.625 48.3125C183.885 48.6094 184.198 48.8255 184.562 48.9609C184.927 49.0964 185.328 49.1641 185.766 49.1641C186.245 49.1641 186.685 49.0443 187.086 48.8047C187.492 48.5651 187.839 48.2344 188.125 47.8125L188.25 49ZM196.445 49.1562C197.263 49.1562 197.971 48.9974 198.57 48.6797C199.169 48.362 199.607 48.0078 199.883 47.6172L198.797 46.4453C198.547 46.7682 198.221 47.0104 197.82 47.1719C197.419 47.3333 197.005 47.4141 196.578 47.4141C196.276 47.4141 195.997 47.3672 195.742 47.2734C195.487 47.1797 195.26 47.0469 195.062 46.875C194.87 46.7083 194.716 46.5234 194.602 46.3203C194.487 46.112 194.393 45.8385 194.32 45.5V45.4766H200.055V44.5547C200.055 43.9349 199.969 43.3698 199.797 42.8594C199.625 42.3438 199.375 41.9036 199.047 41.5391C198.714 41.1745 198.307 40.8932 197.828 40.6953C197.354 40.4922 196.812 40.3906 196.203 40.3906C195.615 40.3906 195.07 40.4974 194.57 40.7109C194.07 40.9245 193.638 41.224 193.273 41.6094C192.909 41.9948 192.625 42.4557 192.422 42.9922C192.219 43.5234 192.117 44.112 192.117 44.7578V45.0703C192.117 45.638 192.219 46.1719 192.422 46.6719C192.63 47.1667 192.924 47.5964 193.305 47.9609C193.685 48.3307 194.141 48.6224 194.672 48.8359C195.203 49.0495 195.794 49.1562 196.445 49.1562ZM196.188 42.1484C196.464 42.1484 196.706 42.1927 196.914 42.2812C197.128 42.3646 197.307 42.4792 197.453 42.625C197.599 42.776 197.714 42.9531 197.797 43.1562C197.88 43.3594 197.922 43.5755 197.922 43.8047V43.9766H194.359C194.411 43.7005 194.49 43.4505 194.594 43.2266C194.698 43.0026 194.828 42.8099 194.984 42.6484C195.135 42.487 195.312 42.3646 195.516 42.2812C195.719 42.1927 195.943 42.1484 196.188 42.1484Z" fill="#8F5AE8"/>
<path d="M-3.8147e-06 46L46 3.8147e-06L2.6061e-07 -1.53603e-07L-3.8147e-06 46Z" fill="#8F5AE8"/>
<path d="M292 19L246 65L292 65L292 19Z" fill="#8F5AE8"/>
</svg>
