
<svg width="280px" height="81px" viewBox="0 0 280 81" version="1.1" xmlns="http://www.w3.org/2000/svg" xmlns:xlink="http://www.w3.org/1999/xlink">
    <defs>
        <polygon id="path-uy2m0aoqn5-1" points="10 0 0 0 0 10 0 81 280 81 280 0"></polygon>
    </defs>
    <g id="Page-1" stroke="none" stroke-width="1" fill="none" fill-rule="evenodd">
        <g id="calendar-bg-360--light" transform="translate(0.000000, -0.000000)">
            <rect id="Rectangle" fill="#B9DFF5" fill-rule="nonzero" x="0" y="3.05980002e-07" width="280" height="80"></rect>
            <g id="Clipped" transform="translate(0.000000, 0.000000)">
                <mask id="mask-uy2m0aoqn5-2" fill="white">
                    <use xlink:href="#path-uy2m0aoqn5-1"></use>
                </mask>
                <g id="Path"></g>
                <path d="M0,0 L0,-1 L-1,-1 L-1,0 L0,0 Z M0,81 L-1,81 L-1,82 L0,82 L0,81 Z M280,81 L280,82 L281,82 L281,81 L280,81 Z M280,0 L281,0 L281,-1 L280,-1 L280,0 Z M0,1 L10,1 L10,-1 L0,-1 L0,1 Z M1,10 L1,0 L-1,0 L-1,10 L1,10 Z M1,81 L1,10 L-1,10 L-1,81 L1,81 Z M280,80 L0,80 L0,82 L280,82 L280,80 Z M279,0 L279,81 L281,81 L281,0 L279,0 Z M10,1 L280,1 L280,-1 L10,-1 L10,1 Z" id="Shape" fill="#86B9D6" fill-rule="nonzero" mask="url(#mask-uy2m0aoqn5-2)"></path>
            </g>
            <rect id="Rectangle" fill="#86B9D6" fill-rule="nonzero" transform="translate(80.500000, 40.500000) rotate(-90.000000) translate(-80.500000, -40.500000) " x="40" y="40.0000003" width="81" height="1"></rect>
            <polygon id="Path" fill="#0B5E8E" points="1.00195 77.0000003 0.00195312 77.0000003 0.00195312 80.0000003 0.00195312 81.0000003 1.00195 81.0000003 4.00195 81.0000003 4.00195 80.0000003 1.00195 80.0000003"></polygon>
            <polygon id="Path" fill="#0B5E8E" points="279.002 77.0000003 280.002 77.0000003 280.002 80.0000003 280.002 81.0000003 279.002 81.0000003 276.002 81.0000003 276.002 80.0000003 279.002 80.0000003"></polygon>
            <polygon id="Path" fill="#0B5E8E" points="84 80.0000003 84 81.0000003 81 81.0000003 80 81.0000003 77 81.0000003 77 80.0000003 80 80.0000003 80 77.0000003 81 77.0000003 81 80.0000003"></polygon>
            <polygon id="Path" fill="#0B5E8E" points="1.00195 4.00000031 0.00195312 4.00000031 0.00195312 1.00000031 0.00195312 3.05980002e-07 1.00195 3.05980002e-07 4.00195 5.44399002e-07 4.00195 1.00000031 1.00195 1.00000031"></polygon>
            <polygon id="Path" fill="#0B5E8E" points="279.002 4.00000031 280.002 4.00000031 280.002 1.00000031 280.002 3.05980002e-07 279.002 3.05980002e-07 276.002 5.44399002e-07 276.002 1.00000031 279.002 1.00000031"></polygon>
            <polygon id="Path" fill="#0B5E8E" points="84 1.00000031 84 3.05980002e-07 81 1.74846002e-07 80 1.31134002e-07 77 2.22044605e-15 77 1.00000031 80 1.00000031 80 4.00000031 81 4.00000031 81 1.00000031"></polygon>
        </g>
    </g>
</svg>
