<svg width="16" height="16" viewBox="0 0 16 16" fill="none" xmlns="http://www.w3.org/2000/svg">
<path d="M10.6663 8.59999V11.4C10.6663 13.7333 9.73301 14.6667 7.39967 14.6667H4.59967C2.26634 14.6667 1.33301 13.7333 1.33301 11.4V8.59999C1.33301 6.26666 2.26634 5.33333 4.59967 5.33333H7.39967C9.73301 5.33333 10.6663 6.26666 10.6663 8.59999Z" fill="#779BF4"/>
<path d="M11.3998 1.33333H8.59984C6.67914 1.33333 5.71152 1.97026 5.42907 3.4926C5.32748 4.04016 5.79484 4.49999 6.35175 4.49999H7.39984C10.1998 4.49999 11.4998 5.79999 11.4998 8.59999V9.64809C11.4998 10.205 11.9597 10.6724 12.5072 10.5708C14.0296 10.2883 14.6665 9.3207 14.6665 7.4V4.6C14.6665 2.26666 13.7332 1.33333 11.3998 1.33333Z" fill="#779BF4"/>
</svg>
