<svg width="179" height="4" viewBox="0 0 179 4" fill="none" xmlns="http://www.w3.org/2000/svg">
    <rect width="1" height="4" fill="#B9DFF5"/>
    <rect x="3" width="1" height="4" fill="#B9DFF5"/>
    <rect x="6" width="1" height="4" fill="#B9DFF5"/>
    <rect x="9" width="1" height="4" fill="#B9DFF5"/>
    <rect x="12" width="1" height="4" fill="#B9DFF5"/>
    <rect x="15" width="1" height="4" fill="#B9DFF5"/>
    <rect x="18" width="1" height="4" fill="#B9DFF5"/>
    <rect x="21" width="1" height="4" fill="#B9DFF5"/>
    <rect x="24" width="1" height="4" fill="#B9DFF5"/>
    <rect x="27" width="1" height="4" fill="#B9DFF5"/>
    <rect x="30" width="1" height="4" fill="#B9DFF5"/>
    <rect x="33" width="1" height="4" fill="#B9DFF5"/>
    <rect x="36" width="1" height="4" fill="#B9DFF5"/>
    <rect x="39" width="1" height="4" fill="#B9DFF5"/>
    <rect x="42" width="1" height="4" fill="#B9DFF5"/>
    <rect x="45" width="1" height="4" fill="#B9DFF5"/>
    <rect x="48" width="1" height="4" fill="#B9DFF5"/>
    <rect x="51" width="1" height="4" fill="#B9DFF5"/>
    <rect x="54" width="1" height="4" fill="#B9DFF5"/>
    <rect x="57" width="1" height="4" fill="#B9DFF5"/>
    <rect x="60" width="1" height="4" fill="#B9DFF5"/>
    <rect x="63" width="1" height="4" fill="#B9DFF5"/>
    <rect x="66" width="1" height="4" fill="#B9DFF5"/>
    <rect x="69" width="1" height="4" fill="#B9DFF5"/>
    <rect x="72" width="1" height="4" fill="#B9DFF5"/>
    <rect x="75" width="1" height="4" fill="#B9DFF5"/>
    <rect x="78" width="1" height="4" fill="#B9DFF5"/>
    <rect x="81" width="1" height="4" fill="#B9DFF5"/>
    <rect x="84" width="1" height="4" fill="#B9DFF5"/>
    <rect x="87" width="1" height="4" fill="#B9DFF5"/>
    <rect x="90" width="1" height="4" fill="#B9DFF5"/>
    <rect x="93" width="1" height="4" fill="#B9DFF5"/>
    <rect x="96" width="1" height="4" fill="#B9DFF5"/>
    <rect x="99" width="1" height="4" fill="#B9DFF5"/>
    <rect x="102" width="1" height="4" fill="#B9DFF5"/>
    <rect x="105" width="1" height="4" fill="#B9DFF5"/>
    <rect x="108" width="1" height="4" fill="#B9DFF5"/>
    <rect x="111" width="1" height="4" fill="#B9DFF5"/>
    <rect x="114" width="1" height="4" fill="#B9DFF5"/>
    <rect x="117" width="1" height="4" fill="#B9DFF5"/>
    <rect x="120" width="1" height="4" fill="#B9DFF5"/>
    <rect x="123" width="1" height="4" fill="#B9DFF5"/>
    <rect x="126" width="1" height="4" fill="#B9DFF5"/>
    <rect x="129" width="1" height="4" fill="#B9DFF5"/>
    <rect x="132" width="1" height="4" fill="#B9DFF5"/>
    <rect x="135" width="1" height="4" fill="#B9DFF5"/>
    <rect x="138" width="1" height="4" fill="#B9DFF5"/>
    <rect x="141" width="1" height="4" fill="#B9DFF5"/>
    <rect x="144" width="1" height="4" fill="#B9DFF5"/>
    <rect x="147" width="1" height="4" fill="#B9DFF5"/>
    <rect x="150" width="1" height="4" fill="#B9DFF5"/>
    <rect x="153" width="1" height="4" fill="#B9DFF5"/>
    <rect x="156" width="1" height="4" fill="#B9DFF5"/>
    <rect x="159" width="1" height="4" fill="#B9DFF5"/>
    <rect x="162" width="1" height="4" fill="#B9DFF5"/>
    <rect x="165" width="1" height="4" fill="#B9DFF5"/>
    <rect x="168" width="1" height="4" fill="#B9DFF5"/>
    <rect x="171" width="1" height="4" fill="#B9DFF5"/>
    <rect x="174" width="1" height="4" fill="#B9DFF5"/>
    <rect x="177" width="1" height="4" fill="#B9DFF5"/>
</svg>
