<svg width="20" height="20" viewBox="0 0 20 20" fill="none" xmlns="http://www.w3.org/2000/svg">
<path d="M14.19 0H5.81C2.17 0 0 2.17 0 5.81V14.18C0 17.83 2.17 20 5.81 20H14.18C17.82 20 19.99 17.83 19.99 14.19V5.81C20 2.17 17.83 0 14.19 0ZM15.25 10.33C15.25 10.74 14.91 11.08 14.5 11.08C14.09 11.08 13.75 10.74 13.75 10.33V7.31L6.03 15.03C5.88 15.18 5.69 15.25 5.5 15.25C5.31 15.25 5.12 15.18 4.97 15.03C4.68 14.74 4.68 14.26 4.97 13.97L12.69 6.25H9.67C9.26 6.25 8.92 5.91 8.92 5.5C8.92 5.09 9.26 4.75 9.67 4.75H14.5C14.91 4.75 15.25 5.09 15.25 5.5V10.33Z" fill="#8191B9"/>
</svg>
