<svg width="16" height="16" viewBox="0 0 16 16" fill="none" xmlns="http://www.w3.org/2000/svg">
<path d="M8.66663 6H4.66663" stroke="#E4E9F4" stroke-width="1.5" stroke-linecap="round" stroke-linejoin="round"/>
<path d="M14.6667 7.31333V8.68671C14.6667 9.05337 14.3734 9.35335 14.0001 9.36668H12.6934C11.9734 9.36668 11.3134 8.84002 11.2534 8.12002C11.2134 7.70002 11.3734 7.30668 11.6534 7.03335C11.9 6.78001 12.24 6.63336 12.6134 6.63336H14.0001C14.3734 6.6467 14.6667 6.94667 14.6667 7.31333Z" stroke="#E4E9F4" stroke-width="1.5" stroke-linecap="round" stroke-linejoin="round"/>
<path d="M11.6534 7.0333C11.3734 7.30664 11.2134 7.69997 11.2534 8.11997C11.3134 8.83997 11.9734 9.36664 12.6934 9.36664H14V10.3333C14 12.3333 12.6667 13.6666 10.6667 13.6666H4.66671C2.66671 13.6666 1.33337 12.3333 1.33337 10.3333V5.66665C1.33337 3.85331 2.42671 2.58664 4.12671 2.37331C4.30004 2.34664 4.48004 2.33331 4.66671 2.33331H10.6667C10.84 2.33331 11.0067 2.33997 11.1667 2.36664C12.8867 2.56664 14 3.83998 14 5.66665V6.63332H12.6134C12.24 6.63332 11.9 6.77997 11.6534 7.0333Z" stroke="#E4E9F4" stroke-width="1.5" stroke-linecap="round" stroke-linejoin="round"/>
</svg>
