
<svg width="190px" height="75px" viewBox="0 0 190 75" version="1.1" xmlns="http://www.w3.org/2000/svg" xmlns:xlink="http://www.w3.org/1999/xlink">
    <g id="Page-1" stroke="none" stroke-width="1" fill="none" fill-rule="evenodd">
        <g id="liquidity-swap-token--dark" transform="translate(-0.000000, 0.000000)">
            <rect id="Rectangle" fill="#24292D" fill-rule="nonzero" x="0.500000175" y="0.5" width="189" height="74"></rect>
            <rect id="Rectangle" stroke="#5F7285" x="0.500000175" y="0.5" width="189" height="74"></rect>
            <polygon id="Path" fill="#4CADE6" points="1.00000017 0 1.74844999e-07 0 1.74844999e-07 1 1.74844999e-07 4 1.00000017 4 1.00000017 1 4.00000017 1 4.00000017 0"></polygon>
            <polygon id="Path" fill="#4CADE6" points="1.31134099e-07 74 1.74844999e-07 75 1.00000017 75 4.00000017 75 4.00000017 74 1.00000017 74 1.00000017 71 -8.8817842e-16 71"></polygon>
            <polygon id="Path" fill="#4CADE6" points="189 8.74228e-08 190 0 190 1 190 4 189 4 189 1 186 1 186 3.49691e-07"></polygon>
            <polygon id="Path" fill="#4CADE6" points="190 74 190 75 189 75 186 75 186 74 189 74 189 71 190 71"></polygon>
        </g>
    </g>
</svg>
