
<svg width="135px" height="61px" viewBox="0 0 135 61" version="1.1" xmlns="http://www.w3.org/2000/svg" xmlns:xlink="http://www.w3.org/1999/xlink">
    <g id="Page-1" stroke="none" stroke-width="1" fill="none" fill-rule="evenodd">
        <g id="liquidity-swap-token-360--dark" transform="translate(-0.000000, 0.000000)">
            <rect id="Rectangle" fill="#24292D" fill-rule="nonzero" x="0.500000175" y="0.5" width="134" height="60"></rect>
            <rect id="Rectangle" stroke="#5F7285" x="0.500000175" y="0.5" width="134" height="60"></rect>
            <polygon id="Path" fill="#4CADE6" points="1.00000017 0 1.74845994e-07 0 1.74845994e-07 1 1.74845994e-07 4 1.00000017 4 1.00000017 1 4.00000017 1 4.00000017 0"></polygon>
            <polygon id="Path" fill="#4CADE6" points="1.31134594e-07 60 1.74845994e-07 61 1.00000017 61 4.00000017 61 4.00000017 60 1.00000017 60 1.00000017 57 -6.21724894e-15 57"></polygon>
            <polygon id="Path" fill="#4CADE6" points="134 8.74264e-08 135 0 135 1 135 4 134 4 134 1 131 1 131 3.49691e-07"></polygon>
            <polygon id="Path" fill="#4CADE6" points="135 60 135 61 134 61 131 61 131 60 134 60 134 57 135 57"></polygon>
        </g>
    </g>
</svg>
