<svg id="Layer_1" xmlns="http://www.w3.org/2000/svg" viewBox="0 0 2362.54 538.05"><defs><style>.cls-1{fill:#fff;}</style></defs><g><path class="cls-1" d="M497.88,130.77c-.92-1.5-2.42-2.59-4.18-2.92-1.75-.33-3.59,0-5.01,1.09l-.33,.25-.25,.17-80.05,52.98c-2.76,1.84-3.68,5.52-2.01,8.44,12.62,22.06,19.72,47.21,20.64,72.7,2.84,79.39-54.15,148.83-132.37,161.45-3.18,.5-5.43,3.26-5.35,6.52l3.43,97.44c0,1.75,.84,3.43,2.17,4.6,1.17,1,2.59,1.5,4.09,1.5h.75c49.3-5.68,96.1-24.99,135.21-55.82,40.19-31.67,70.28-74.04,86.99-122.59,25.99-75.21,17.3-157.52-23.9-225.71l.17-.08Zm25.15,157.6l-83.98-7.02c.42-6.02,.58-12.12,.33-18.3-.08-2.51-.25-5.1-.42-7.6l84.07-5.93c1,12.87,1,25.9,0,38.86Zm-17.13,74.37l-78.13-31.34c3.18-8.02,5.68-16.3,7.6-24.82l82.06,19.05c-2.09,9.02-4.6,17.88-7.6,26.74-1.25,3.51-2.51,7.02-3.84,10.45l-.08-.08Zm-103.62,12.7c5.43-6.77,10.28-13.96,14.62-21.56l72.7,42.53c-6.52,11.28-13.96,21.98-22.06,32.09l-65.26-53.06Zm103.7-199.89c4.76,12.12,8.61,24.48,11.45,37.02l-82.31,18.22c-1.92-8.44-4.51-16.71-7.69-24.74l78.47-30.5h.08Zm-187.52,256.79c8.44-2.59,16.63-5.77,24.4-9.53l36.1,75.96c-11.7,5.6-23.82,10.36-36.35,14.21l-24.23-80.64h.08Zm93.01,47.72l-46.71-69.86c7.27-4.93,14.12-10.45,20.47-16.38l56.74,62c-9.53,8.86-19.72,16.88-30.5,24.23Z"/><path class="cls-1" d="M50.48,127.6l86.66,45.71c.92,.5,1.92,.75,2.92,.75,1.92,0,3.76-.84,5.01-2.42,28.83-36.6,71.95-58.58,118.49-60.25,45.12-1.59,88.91,16.3,120,49.14,2.09,2.26,5.52,2.59,8.11,.92l81.64-54.07c1.5-1,2.51-2.59,2.76-4.35,.25-1.75-.25-3.59-1.42-5.01-31.09-37.44-71.95-65.68-118.16-81.73C242.68-23.07,115.91,18.96,48.22,118.4c-1,1.5-1.34,3.34-.92,5.1,.42,1.75,1.59,3.26,3.18,4.09ZM352.31,28.24c41.78,14.46,78.97,39.44,107.97,72.45l-71.28,47.21c-33.34-33.01-78.97-50.89-125.93-49.22-48.47,1.75-93.59,23.82-124.59,60.92L62.76,119.74C128.19,29.16,246.19-8.45,352.31,28.24Z"/><path class="cls-1" d="M256.63,426.51c-79.89-6.27-142.31-71.53-145.15-151.75-.84-24.65,3.84-48.47,13.96-70.78,1.42-3.09,.17-6.69-2.84-8.19l-85.82-45.21c-1.5-.84-3.34-.92-4.93-.42-1.59,.5-3.01,1.75-3.76,3.26-4.43,9.28-8.36,18.89-11.7,28.41C-6.85,249.27-2.5,321.88,28.75,386.06c31.25,64.26,85.57,112.48,153.09,135.79,25.07,8.69,51.23,13.54,77.55,14.54h.25c1.67,0,3.26-.67,4.51-1.84,1.25-1.25,1.92-2.92,1.84-4.68l-3.43-97.35c-.08-3.26-2.59-5.85-5.85-6.1l-.08,.08Z"/><path class="cls-1" d="M394.07,264.94c-2.42-68.92-60.41-122.98-129.32-120.56-68.83,2.42-122.9,60.49-120.48,129.41,2.42,67.41,57.9,120.65,124.82,120.65h4.51c68.83-2.42,122.9-60.49,120.48-129.41v-.08Zm-120.9,118.06h-4.09c-60.82,0-111.38-48.39-113.55-109.72-2.25-62.66,46.89-115.47,109.55-117.64,30.37-1.08,59.24,9.76,81.52,30.45,22.19,20.69,35.04,48.81,36.13,79.18,2.25,62.66-46.89,115.47-109.55,117.64v.08Z"/></g><g><g><path class="cls-1" d="M1604.04,87.94h92.45l213.68,264.11h.94V87.94h62.27V456.13h-64.15l-241.98-300.48h-.47V456.13h-62.74V87.94Z"/><path class="cls-1" d="M2069.61,87.94h288.21v60.99h-223.12v96.8h153.28v50.36h-153.28v99.04h227.83v60.99h-292.93V87.94Z"/></g><path class="cls-1" d="M1352.2,81.35c-105.37,0-190.79,85.42-190.79,190.79s85.42,190.79,190.79,190.79,190.79-85.42,190.79-190.79-85.42-190.79-190.79-190.79Zm0,320.25c-71.5,0-129.46-57.96-129.46-129.46s57.96-129.46,129.46-129.46,129.46,57.96,129.46,129.46-57.96,129.46-129.46,129.46Z"/><circle class="cls-1" cx="1352.19" cy="272.15" r="37.64"/><path class="cls-1" d="M1047,319.95c-19.02,47.83-65.7,81.65-120.3,81.65-71.5,0-129.46-57.96-129.46-129.46s57.96-129.46,129.46-129.46c54.61,0,101.28,33.83,120.31,81.65h64.45c-21.22-82.23-95.89-142.99-184.75-142.99-105.37,0-190.79,85.42-190.79,190.79s85.42,190.79,190.79,190.79c88.86,0,163.53-60.75,184.75-142.99h-64.45Z"/></g></svg>
