<svg width="41" height="40" viewBox="0 0 41 40" fill="none" xmlns="http://www.w3.org/2000/svg">
<path fill-rule="evenodd" clip-rule="evenodd" d="M3 33.3836V6.71345C4.86642 8.26138 7.34579 10.291 9.30186 11.7974C11.371 13.3908 13.319 15.8415 14.6087 17.6493C13.9215 18.0885 13.1762 18.4463 12.3858 18.7098L8.51662 19.9994L12.3858 21.289C13.1473 21.5428 13.867 21.8843 14.5331 22.3017C13.1815 24.113 11.187 26.5917 9.30186 28.2015C7.49791 29.742 4.93549 31.8251 3 33.3836ZM17.658 25.4031C15.8147 26.7243 13.3125 28.7087 11.7985 30.6979C10.3677 32.5777 8.30234 35.0977 6.72172 36.9986H33.2774C31.6954 35.0977 29.6295 32.5777 28.2038 30.6978C26.6945 28.7077 24.1894 26.7224 22.3438 25.4013C21.9077 26.0855 21.5522 26.8271 21.2901 27.6133L20.0004 31.4822L18.7106 27.6133C18.4488 26.8278 18.0936 26.0868 17.658 25.4031ZM25.4036 22.3421C26.7248 24.1875 28.7102 26.6923 30.7004 28.2014C32.5804 29.6269 35.1006 31.6926 37.0016 33.2746V6.71681C35.137 8.26433 32.6602 10.2922 30.7004 11.7975C28.6262 13.3907 26.6787 15.8406 25.3903 17.6482C26.078 18.0879 26.8239 18.4461 27.6149 18.7098L31.4841 19.9994L27.6149 21.289C26.829 21.551 26.0876 21.9063 25.4036 22.3421ZM22.3495 14.6064C24.1559 13.3168 26.6053 11.3694 28.2038 9.30107C29.7153 7.34527 31.7446 4.86624 33.2911 3H6.71441C8.26243 4.86623 10.2921 7.3452 11.7985 9.301C13.3921 11.37 15.8427 13.3179 17.6505 14.6074C18.0895 13.9205 18.4473 13.1755 18.7106 12.3855L20.0004 8.51658L21.2901 12.3855C21.5533 13.1751 21.9108 13.9197 22.3495 14.6064ZM0 2.5C0 1.11929 1.11929 0 2.5 0H37.5016C38.8823 0 40.0016 1.11929 40.0016 2.5V37.4986C40.0016 38.8793 38.8823 39.9986 37.5016 39.9986H2.5C1.11929 39.9986 0 38.8793 0 37.4986V2.5Z" fill="white"/>
</svg>
