<svg id="Layer_1" xmlns="http://www.w3.org/2000/svg" viewBox="0 0 1207.43 1207.56"><defs><style>.cls-1{stroke-width:7.43px;}.cls-1,.cls-2{fill:#fff;stroke:#fff;stroke-linecap:round;stroke-linejoin:round;}.cls-2{stroke-width:7.43px;}</style></defs><path class="cls-2" d="M1117.41,293.49c-2.06-3.38-5.44-5.81-9.38-6.56-3.94-.75-8.06,0-11.25,2.44l-.75,.56-.56,.38-179.67,118.9c-6.19,4.13-8.25,12.38-4.5,18.94,28.32,49.51,44.26,105.96,46.32,163.16,6.38,178.17-121.53,334.02-297.07,362.34-7.13,1.13-12.19,7.31-12,14.63l7.69,218.68c0,3.94,1.88,7.69,4.88,10.32,2.63,2.25,5.81,3.38,9.19,3.38h1.69c110.65-12.75,215.68-56.08,303.45-125.28,90.21-71.08,157.73-166.17,195.24-275.13,58.33-168.79,38.82-353.52-53.64-506.56l.38-.19Zm56.45,353.71l-188.48-15.75c.94-13.5,1.31-27.19,.75-41.07-.19-5.63-.56-11.44-.94-17.07l188.67-13.32c2.25,28.88,2.25,58.14,0,87.21Zm-38.45,166.92l-175.36-70.33c7.13-18,12.75-36.57,17.07-55.7l184.17,42.76c-4.69,20.25-10.32,40.13-17.07,60.01-2.81,7.88-5.63,15.75-8.63,23.44l-.19-.19Zm-232.56,28.51c12.19-15.19,23.07-31.32,32.82-48.39l163.16,95.46c-14.63,25.32-31.32,49.32-49.51,72.02l-146.47-119.09Zm232.74-448.61c10.69,27.19,19.32,54.95,25.69,83.08l-184.73,40.88c-4.31-18.94-10.13-37.51-17.25-55.51l176.11-68.45h.19Zm-420.85,576.33c18.94-5.81,37.32-12.94,54.76-21.38l81.02,170.48c-26.26,12.57-53.45,23.26-81.58,31.88l-54.39-180.98h.19Zm208.74,107.09l-104.84-156.79c16.32-11.07,31.7-23.44,45.95-36.76l127.34,139.16c-21.38,19.88-44.26,37.88-68.45,54.39Z"/><path class="cls-2" d="M113.29,286.37l194.48,102.59c2.06,1.13,4.31,1.69,6.56,1.69,4.31,0,8.44-1.88,11.25-5.44,64.7-82.15,161.48-131.47,265.94-135.22,101.27-3.56,199.55,36.57,269.32,110.28,4.69,5.06,12.38,5.81,18.19,2.06l183.23-121.34c3.38-2.25,5.63-5.81,6.19-9.75,.56-3.94-.56-8.06-3.19-11.25-69.77-84.02-161.48-147.41-265.19-183.42-255.44-88.33-539.94,6-691.86,229.18-2.25,3.38-3,7.5-2.06,11.44,.94,3.94,3.56,7.31,7.13,9.19ZM790.7,63.38c93.77,32.45,177.23,88.52,242.31,162.6l-159.98,105.96c-74.83-74.08-177.23-114.22-282.63-110.46-108.78,3.94-210.05,53.45-279.63,136.72l-169.92-89.46C287.71,65.44,552.52-18.96,790.7,63.38Z"/><path class="cls-2" d="M575.96,957.22c-179.29-14.07-319.39-160.54-325.77-340.58-1.88-55.33,8.63-108.78,31.32-158.85,3.19-6.94,.38-15-6.38-18.38l-192.61-101.46c-3.38-1.88-7.5-2.06-11.07-.94-3.56,1.13-6.75,3.94-8.44,7.31-9.94,20.82-18.75,42.39-26.26,63.77-52.14,151.35-42.39,314.33,27.76,458.36,70.14,144.22,192.05,252.44,343.58,304.76,56.26,19.5,114.97,30.38,174.04,32.63h.56c3.75,0,7.31-1.5,10.13-4.13,2.81-2.81,4.31-6.56,4.13-10.5l-7.69-218.49c-.19-7.31-5.81-13.13-13.13-13.69l-.19,.19Z"/><path class="cls-1" d="M884.43,594.61c-5.43-154.67-135.57-276.01-290.24-270.58-154.48,5.43-275.82,135.76-270.39,290.43,5.43,151.3,129.95,270.77,280.13,270.77h10.11c154.48-5.43,275.82-135.76,270.39-290.43v-.19Zm-271.33,264.96h-9.18c-136.51,0-249.98-108.61-254.85-246.24-5.06-140.63,105.24-259.16,245.86-264.03,68.16-2.43,132.95,21.91,182.95,68.35,49.81,46.44,78.65,109.54,81.08,177.7,5.06,140.63-105.24,259.16-245.86,264.03v.19Z"/></svg>
