<svg width="400px" height="67px" viewBox="0 0 400 67" version="1.1" xmlns="http://www.w3.org/2000/svg" xmlns:xlink="http://www.w3.org/1999/xlink">
    <g id="Page-1" stroke="none" stroke-width="1" fill="none" fill-rule="evenodd">
        <g id="price-info-bg--light" transform="translate(-0.000000, -0.000000)">
            <polygon id="Path" stroke="#86B9D6" fill="#DBE6EC" fill-rule="nonzero" points="399.5 60.3827003 399.5 66.5000003 0.500000044 66.5000003 0.500000044 0.500000306 399.5 0.500000306"></polygon>
            <rect id="Rectangle" fill="#86B9D6" fill-rule="nonzero" transform="translate(200.500000, 33.500000) rotate(-90.000000) translate(-200.500000, -33.500000) " x="167" y="33.0000003" width="67" height="1"></rect>
            <polygon id="Path" fill="#0B5E8E" points="204 1.00000031 204 3.05980002e-07 201 1.74846002e-07 200 1.31134002e-07 197 2.22044605e-15 197 1.00000031 200 1.00000031 200 4.00000031 201 4.00000031 201 1.00000031"></polygon>
            <polygon id="Path" fill="#0B5E8E" points="204 66.0000003 204 67.0000003 201 67.0000003 200 67.0000003 197 67.0000003 197 66.0000003 200 66.0000003 200 63.0000003 201 63.0000003 201 66.0000003"></polygon>
            <polygon id="Path" fill="#0B5E8E" points="4.00000004 66.0000003 4.00000004 67.0000003 1.00000004 67.0000003 4.37113956e-08 67.0000003 -4.4408921e-15 66.0000003 1.07284396e-07 63.0000003 1.00000004 63.0000003 1.00000004 66.0000003"></polygon>
            <polygon id="Path" fill="#0B5E8E" points="4.00000004 1.00000031 4.00000004 3.05980002e-07 1.00000004 1.74846002e-07 4.37113956e-08 1.31134002e-07 -4.4408921e-15 1.00000031 1.07284396e-07 4.00000031 1.00000004 4.00000031 1.00000004 1.00000031"></polygon>
            <polygon id="Path" fill="#0B5E8E" points="396 1.00000031 396 3.05980002e-07 399 1.74846002e-07 400 1.31134002e-07 400 1.00000031 400 4.00000031 399 4.00000031 399 1.00000031"></polygon>
            <polygon id="Path" fill="#0B5E8E" points="396 66.0000003 396 67.0000003 399 67.0000003 400 67.0000003 400 66.0000003 400 63.0000003 399 63.0000003 399 66.0000003"></polygon>
        </g>
    </g>
</svg>
