<svg width="14" height="15" viewBox="0 0 14 15" fill="none" xmlns="http://www.w3.org/2000/svg">
<path d="M7.00002 13.3334C3.77827 13.3334 1.16669 10.7218 1.16669 7.50002C1.16669 4.27827 3.77827 1.66669 7.00002 1.66669C10.2218 1.66669 12.8334 4.27827 12.8334 7.50002C12.8334 10.7218 10.2218 13.3334 7.00002 13.3334ZM7.00002 12.1667C8.2377 12.1667 9.42468 11.675 10.2999 10.7999C11.175 9.92468 11.6667 8.7377 11.6667 7.50002C11.6667 6.26234 11.175 5.07536 10.2999 4.20019C9.42468 3.32502 8.2377 2.83335 7.00002 2.83335C5.76234 2.83335 4.57536 3.32502 3.70019 4.20019C2.82502 5.07536 2.33335 6.26234 2.33335 7.50002C2.33335 8.7377 2.82502 9.92468 3.70019 10.7999C4.57536 11.675 5.76234 12.1667 7.00002 12.1667ZM6.41669 9.25002H7.58335V10.4167H6.41669V9.25002ZM7.58335 8.29044V8.66669H6.41669V7.79169C6.41669 7.63698 6.47815 7.4886 6.58754 7.37921C6.69694 7.26981 6.84531 7.20835 7.00002 7.20835C7.16573 7.20834 7.32804 7.16128 7.46804 7.07263C7.60805 6.98398 7.72001 6.8574 7.79089 6.70761C7.86177 6.55782 7.88865 6.39098 7.86842 6.22651C7.84818 6.06204 7.78166 5.90669 7.67659 5.77855C7.57152 5.65041 7.43222 5.55474 7.2749 5.50267C7.11758 5.4506 6.94871 5.44428 6.78794 5.48443C6.62716 5.52459 6.4811 5.60957 6.36673 5.7295C6.25237 5.84942 6.17442 5.99936 6.14194 6.16185L4.99744 5.9326C5.06839 5.57799 5.23223 5.24857 5.47222 4.97803C5.71221 4.70749 6.01974 4.50553 6.36336 4.39279C6.70699 4.28005 7.07439 4.26059 7.428 4.33638C7.78162 4.41217 8.10876 4.5805 8.376 4.82417C8.64323 5.06783 8.84097 5.37809 8.949 5.72322C9.05703 6.06836 9.07148 6.43599 8.99086 6.78853C8.91024 7.14108 8.73745 7.46589 8.49016 7.72977C8.24286 7.99365 7.92993 8.18714 7.58335 8.29044Z" fill="#9BC9E4"/>
</svg>
