<svg width="460px" height="110px" viewBox="0 0 460 110" version="1.1" xmlns="http://www.w3.org/2000/svg" xmlns:xlink="http://www.w3.org/1999/xlink">
    <g id="Page-1" stroke="none" stroke-width="1" fill="none" fill-rule="evenodd">
        <g id="swap-bg" transform="translate(-0.000002, -0.000001)">
            <g id="Group" transform="translate(0.000002, 0.000001)">
                <rect id="Rectangle" fill-opacity="0.8" fill="#E3EEF4" fill-rule="nonzero" x="0" y="0" width="460" height="110"></rect>
                <rect id="Rectangle" stroke="#CFE5F2" x="0.5" y="0.5" width="459" height="109"></rect>
            </g>
            <polygon id="Path" fill="#FFFFFF" fill-rule="nonzero" points="-3.55271368e-15 16.0000014 16.0000019 1.38028e-06 1.4175e-06 -3.55271368e-15"></polygon>
            <polygon id="Path" fill="#FFFFFF" points="1.00000191 106.000001 1.90735e-06 106.000001 1.90735e-06 109.000001 1.90735e-06 110.000001 1.00000191 110.000001 4.00000191 110.000001 4.00000191 109.000001 1.00000191 109.000001"></polygon>
            <polygon id="Path" fill="#FFFFFF" points="459.000002 4.00000138 460.000002 4.00000138 460.000002 1.00000138 460.000002 1.38028e-06 459.000002 1.38028e-06 456.000002 1.38028e-06 456.000002 1.00000138 459.000002 1.00000138"></polygon>
            <polygon id="Path" fill="#FFFFFF" fill-rule="nonzero" points="460.000002 94.0000014 444.000002 110.000001 460.000002 110.000001"></polygon>
        </g>
    </g>
</svg>
