
<svg width="280px" height="114px" viewBox="0 0 280 114" version="1.1" xmlns="http://www.w3.org/2000/svg" xmlns:xlink="http://www.w3.org/1999/xlink">
    <defs>
        <polygon id="path-eu86g5pydx-1" points="0 0 280 0 280 16 280 33 280 34 280 104 270 114 0 114 0 34 0 33 0 16"></polygon>
    </defs>
    <g id="Page-1" stroke="none" stroke-width="1" fill="none" fill-rule="evenodd">
        <g id="swap-coin-bottom-360--dark" transform="translate(0.000000, -0.000000)">
            <polygon id="Path" fill="#2D3741" fill-rule="nonzero" points="0 3.05976002e-07 280 3.05976002e-07 280 16.0000003 0 16.0000003"></polygon>
            <rect id="Rectangle" fill="#2D3741" fill-rule="nonzero" x="0" y="16.0000003" width="280" height="17"></rect>
            <polygon id="Path" fill="#24292D" points="280 34.0000003 0 34.0000003 0 114 270 114 280 104"></polygon>
            <g id="Clipped" transform="translate(0.000000, 0.000000)">
                <mask id="mask-eu86g5pydx-2" fill="white">
                    <use xlink:href="#path-eu86g5pydx-1"></use>
                </mask>
                <g id="Path"></g>
                <path d="M280,0 L281,0 L281,-1 L280,-1 L280,0 Z M0,0 L0,-1 L-1,-1 L-1,0 L0,0 Z M280,104 L280.707,104.707 L281,104.414 L281,104 L280,104 Z M270,114 L270,115 L270.414,115 L270.707,114.707 L270,114 Z M0,114 L-1,114 L-1,115 L0,115 L0,114 Z M280,-1 L0,-1 L0,1 L280,1 L280,-1 Z M281,16 L281,0 L279,0 L279,16 L281,16 Z M281,33 L281,16 L279,16 L279,33 L281,33 Z M281,34 L281,33 L279,33 L279,34 L281,34 Z M281,104 L281,34 L279,34 L279,104 L281,104 Z M270.707,114.707 L280.707,104.707 L279.293,103.293 L269.293,113.293 L270.707,114.707 Z M0,115 L270,115 L270,113 L0,113 L0,115 Z M-1,34 L-1,114 L1,114 L1,34 L-1,34 Z M-1,33 L-1,34 L1,34 L1,33 L-1,33 Z M-1,16 L-1,33 L1,33 L1,16 L-1,16 Z M-1,0 L-1,16 L1,16 L1,0 L-1,0 Z" id="Shape" fill="#5F7285" fill-rule="nonzero" mask="url(#mask-eu86g5pydx-2)"></path>
            </g>
            <rect id="Rectangle" fill="#5F7285" fill-rule="nonzero" x="0" y="33.0000003" width="280" height="1"></rect>
            <rect id="Rectangle" fill="#5F7285" fill-rule="nonzero" transform="translate(80.500005, 57.000000) rotate(-90.000000) translate(-80.500005, -57.000000) " x="23.500005" y="56.4999953" width="114" height="1.00001"></rect>
            <polygon id="Path" fill="#4CADE6" points="1.00195 30.0000003 0.00195312 30.0000003 0.00195312 33.0000003 0.00195312 34.0000003 0.00195312 37.0000003 1.00195 37.0000003 1.00195 34.0000003 4.00195 34.0000003 4.00195 33.0000003 1.00195 33.0000003"></polygon>
            <polygon id="Path" fill="#4CADE6" points="270 113.993 270 114 266 114 266 113 269.58 113 279 103.579 279 99.9995003 280 99.9995003 280 103.99 280.002 103.992 280 103.993 280 104 279.994 104 270 113.994"></polygon>
            <polygon id="Path" fill="#4CADE6" points="1.00195 110 0.00195312 110 0.00195312 113 0.00195312 114 1.00195 114 4.00195 114 4.00195 113 1.00195 113"></polygon>
            <polygon id="Path" fill="#4CADE6" points="1 4.00000031 0 4.00000031 0 1.00000031 0 3.05976002e-07 1 3.05976002e-07 4 5.44395002e-07 4 1.00000031 1 1.00000031"></polygon>
            <polygon id="Path" fill="#4CADE6" points="279 4.00000031 280 4.00000031 280 1.00000031 280 3.05976002e-07 279 3.05976002e-07 276 5.44395002e-07 276 1.00000031 279 1.00000031"></polygon>
            <polygon id="Path" fill="#4CADE6" points="84 1.00000031 84 3.05976002e-07 81 1.74842002e-07 80 1.31134002e-07 77 1.77635684e-15 77 1.00000031 80 1.00000031 80 4.00000031 81 4.00000031 81 1.00000031"></polygon>
            <polygon id="Path" fill="#4CADE6" points="84 33.0000003 84 34.0000003 81 34.0000003 81 37.0000003 80 37.0000003 80 34.0000003 77 34.0000003 77 33.0000003 80 33.0000003 80 30.0000003 81 30.0000003 81 33.0000003"></polygon>
            <polygon id="Path" fill="#4CADE6" points="84 113 84 114 81 114 80 114 77 114 77 113 80 113 80 110 81 110 81 113"></polygon>
            <polygon id="Path" fill="#4CADE6" points="279.002 30.0000003 280.002 30.0000003 280.002 33.0000003 280.002 34.0000003 280.002 37.0000003 279.002 37.0000003 279.002 34.0000003 276.002 34.0000003 276.002 33.0000003 279.002 33.0000003"></polygon>
        </g>
    </g>
</svg>
