<svg width="292" height="65" viewBox="0 0 292 65" fill="none" xmlns="http://www.w3.org/2000/svg">
<mask id="path-1-inside-1_188_6344" fill="white">
<path fill-rule="evenodd" clip-rule="evenodd" d="M227 65L292 7.37235e-06L227 0H65L0 65L227 65Z"/>
</mask>
<path fill-rule="evenodd" clip-rule="evenodd" d="M227 65L292 7.37235e-06L227 0H65L0 65L227 65Z" fill="#402E61"/>
<path d="M292 7.37235e-06L292.707 0.707114L294.414 -0.999992L292 -0.999993V7.37235e-06ZM227 65V66H227.414L227.707 65.7071L227 65ZM227 0V-1V0ZM65 0V-1H64.5858L64.2929 -0.707107L65 0ZM0 65L-0.707107 64.2929L-2.41421 66H-3.36097e-08L0 65ZM291.293 -0.7071L226.293 64.2929L227.707 65.7071L292.707 0.707114L291.293 -0.7071ZM227 1L292 1.00001V-0.999993L227 -1V1ZM227 -1H65V1H227V-1ZM64.2929 -0.707107L-0.707107 64.2929L0.707107 65.7071L65.7071 0.707107L64.2929 -0.707107ZM-3.36097e-08 66L227 66V64L3.36097e-08 64L-3.36097e-08 66Z" fill="#8F5AE8" mask="url(#path-1-inside-1_188_6344)"/>
</svg>
