<svg width="116" height="6" viewBox="0 0 116 6" fill="none" xmlns="http://www.w3.org/2000/svg">
<path fill-rule="evenodd" clip-rule="evenodd" d="M25.0593 2.99986L23.4463 1.34934L24.1614 0.650391L26.116 2.65039L26.4576 2.99986L26.116 3.34934L24.1614 5.34934L23.4463 4.65039L25.0593 2.99986ZM0 1.34958L1.61307 3.00011L0 4.65063L0.715175 5.34958L2.66979 3.34958L3.01133 3.00011L2.66979 2.65063L0.715175 0.650635L0 1.34958ZM3.89472 1.34958L5.50779 3.00011L3.89472 4.65063L4.60989 5.34958L6.56451 3.34958L6.90605 3.00011L6.56451 2.65063L4.60989 0.650635L3.89472 1.34958ZM9.42204 3.00011L7.80897 1.34958L8.52414 0.650635L10.4788 2.65063L10.8203 3.00011L10.4788 3.34958L8.52414 5.34958L7.80897 4.65063L9.42204 3.00011ZM11.7152 1.34958L13.3283 3.00011L11.7152 4.65063L12.4304 5.34958L14.385 3.34958L14.7266 3.00011L14.385 2.65063L12.4304 0.650635L11.7152 1.34958ZM17.239 3.00011L15.6259 1.34958L16.3411 0.650635L18.2957 2.65063L18.6373 3.00011L18.2957 3.34958L16.3411 5.34958L15.6259 4.65063L17.239 3.00011ZM19.5319 1.34958L21.145 3.00011L19.5319 4.65063L20.2471 5.34958L22.2017 3.34958L22.5433 3.00011L22.2017 2.65063L20.2471 0.650635L19.5319 1.34958ZM27.3526 1.34958L28.9657 3.00011L27.3526 4.65063L28.0678 5.34958L30.0224 3.34958L30.364 3.00011L30.0224 2.65063L28.0678 0.650635L27.3526 1.34958ZM32.8723 3.00011L31.2592 1.34958L31.9744 0.650635L33.929 2.65063L34.2705 3.00011L33.929 3.34958L31.9744 5.34958L31.2592 4.65063L32.8723 3.00011ZM35.1654 1.34958L36.7785 3.00011L35.1654 4.65063L35.8806 5.34958L37.8352 3.34958L38.1767 3.00011L37.8352 2.65063L35.8806 0.650635L35.1654 1.34958ZM40.6847 3.00011L39.0716 1.34958L39.7868 0.650635L41.7414 2.65063L42.083 3.00011L41.7414 3.34958L39.7868 5.34958L39.0716 4.65063L40.6847 3.00011ZM42.9863 1.34958L44.5994 3.00011L42.9863 4.65063L43.7015 5.34958L45.6561 3.34958L45.9976 3.00011L45.6561 2.65063L43.7015 0.650635L42.9863 1.34958ZM48.5094 3.00011L46.8964 1.34958L47.6115 0.650635L49.5661 2.65063L49.9077 3.00011L49.5661 3.34958L47.6115 5.34958L46.8964 4.65063L48.5094 3.00011ZM50.7949 1.34958L52.4079 3.00011L50.7949 4.65063L51.51 5.34958L53.4646 3.34958L53.8062 3.00011L53.4646 2.65063L51.51 0.650635L50.7949 1.34958ZM56.3263 3.00011L54.7133 1.34958L55.4284 0.650635L57.383 2.65063L57.7246 3.00011L57.383 3.34958L55.4284 5.34958L54.7133 4.65063L56.3263 3.00011ZM58.6273 1.34958L60.2403 3.00011L58.6273 4.65063L59.3424 5.34958L61.2971 3.34958L61.6386 3.00011L61.2971 2.65063L59.3424 0.650635L58.6273 1.34958ZM64.1428 3.00011L62.5297 1.34958L63.2449 0.650635L65.1995 2.65063L65.541 3.00011L65.1995 3.34958L63.2449 5.34958L62.5297 4.65063L64.1428 3.00011ZM66.432 1.34958L68.0451 3.00011L66.432 4.65063L67.1472 5.34958L69.1018 3.34958L69.4434 3.00011L69.1018 2.65063L67.1472 0.650635L66.432 1.34958ZM71.9597 3.00011L70.3466 1.34958L71.0618 0.650635L73.0164 2.65063L73.3579 3.00011L73.0164 3.34958L71.0618 5.34958L70.3466 4.65063L71.9597 3.00011ZM74.249 1.34958L75.8621 3.00011L74.249 4.65063L74.9642 5.34958L76.9188 3.34958L77.2603 3.00011L76.9188 2.65063L74.9642 0.650635L74.249 1.34958ZM79.7722 3.00011L78.1591 1.34958L78.8743 0.650635L80.8289 2.65063L81.1705 3.00011L80.8289 3.34958L78.8743 5.34958L78.1591 4.65063L79.7722 3.00011ZM82.0814 1.34958L83.6945 3.00011L82.0814 4.65063L82.7966 5.34958L84.7512 3.34958L85.0927 3.00011L84.7512 2.65063L82.7966 0.650635L82.0814 1.34958ZM87.5928 3.00011L85.9798 1.34958L86.695 0.650635L88.6496 2.65063L88.9911 3.00011L88.6496 3.34958L86.695 5.34958L85.9798 4.65063L87.5928 3.00011ZM89.894 1.34958L91.507 3.00011L89.894 4.65063L90.6091 5.34958L92.5638 3.34958L92.9053 3.00011L92.5638 2.65063L90.6091 0.650635L89.894 1.34958ZM95.4099 3.00011L93.7968 1.34958L94.512 0.650635L96.4666 2.65063L96.8081 3.00011L96.4666 3.34958L94.512 5.34958L93.7968 4.65063L95.4099 3.00011ZM101.262 1.34958L102.875 3.00011L101.262 4.65063L101.977 5.34958L103.932 3.34958L104.273 3.00011L103.932 2.65063L101.977 0.650635L101.262 1.34958ZM110.695 3.00011L109.082 1.34958L109.798 0.650635L111.752 2.65063L112.094 3.00011L111.752 3.34958L109.798 5.34958L109.082 4.65063L110.695 3.00011ZM97.7067 1.34958L99.3197 3.00011L97.7067 4.65063L98.4218 5.34958L100.376 3.34958L100.718 3.00011L100.376 2.65063L98.4218 0.650635L97.7067 1.34958ZM106.785 3.00011L105.172 1.34958L105.887 0.650635L107.842 2.65063L108.183 3.00011L107.842 3.34958L105.887 5.34958L105.172 4.65063L106.785 3.00011ZM112.989 1.34958L114.602 3.00011L112.989 4.65063L113.704 5.34958L115.658 3.34958L116 3.00011L115.658 2.65063L113.704 0.650635L112.989 1.34958Z" fill="#2D3741"/>
</svg>
