
<svg width="280px" height="114px" viewBox="0 0 280 114" version="1.1" xmlns="http://www.w3.org/2000/svg" xmlns:xlink="http://www.w3.org/1999/xlink">
    <defs>
        <polygon id="path-q_tlmdplod-1" points="280 0 10 0 0 10 0 16 0 33 0 34 0 114 280 114 280 34 280 33 280 16"></polygon>
    </defs>
    <g id="Page-1" stroke="none" stroke-width="1" fill="none" fill-rule="evenodd">
        <g id="swap-coin-top-360--dark" transform="translate(-0.001953, -0.001465)">
            <polygon id="Path" fill="#2D3741" points="280.001953 0.00146496 10.0019532 0.00146496 0.00195318 10.001465 0.00195318 16.001465 280.001953 16.001465"></polygon>
            <rect id="Rectangle" fill="#2D3741" fill-rule="nonzero" x="0.00195318" y="16.001465" width="280" height="17"></rect>
            <rect id="Rectangle" fill="#24292D" fill-rule="nonzero" x="0.00195318" y="34.001465" width="280" height="80"></rect>
            <g id="Clipped" transform="translate(0.001953, 0.001465)">
                <mask id="mask-q_tlmdplod-2" fill="white">
                    <use xlink:href="#path-q_tlmdplod-1"></use>
                </mask>
                <g id="Path"></g>
                <path d="M10,0 L10,-1 L9.58579,-1 L9.29289,-0.707107 L10,0 Z M280,0 L281,0 L281,-1 L280,-1 L280,0 Z M0,10 L-0.707107,9.29289 L-1,9.58579 L-1,10 L0,10 Z M0,114 L-1,114 L-1,115 L0,115 L0,114 Z M280,114 L280,115 L281,115 L281,114 L280,114 Z M10,1 L280,1 L280,-1 L10,-1 L10,1 Z M0.707107,10.7071 L10.7071,0.707107 L9.292893,-0.707107 L-0.707107,9.292893 L0.707107,10.7071 Z M1,16 L1,10 L-1,10 L-1,16 L1,16 Z M1,33 L1,16 L-1,16 L-1,33 L1,33 Z M1,34 L1,33 L-1,33 L-1,34 L1,34 Z M1,114 L1,34 L-1,34 L-1,114 L1,114 Z M280,113 L0,113 L0,115 L280,115 L280,113 Z M279,34 L279,114 L281,114 L281,34 L279,34 Z M279,33 L279,34 L281,34 L281,33 L279,33 Z M279,16 L279,33 L281,33 L281,16 L279,16 Z M279,0 L279,16 L281,16 L281,0 L279,0 Z" id="Shape" fill="#5F7285" fill-rule="nonzero" mask="url(#mask-q_tlmdplod-2)"></path>
            </g>
            <rect id="Rectangle" fill="#5F7285" fill-rule="nonzero" x="0.00195318" y="33.001465" width="280" height="1"></rect>
            <rect id="Rectangle" fill="#5F7285" fill-rule="nonzero" transform="translate(80.501958, 57.001465) rotate(-90.000000) translate(-80.501958, -57.001465) " x="23.5019582" y="56.50146" width="114" height="1.00001"></rect>
            <polygon id="Path" fill="#4CADE6" points="1.00390318 30.001465 0.0039063 30.001465 0.0039063 33.001465 0.0039063 34.001465 0.0039063 37.001465 1.00390318 37.001465 1.00390318 34.001465 4.00390318 34.001465 4.00390318 33.001465 1.00390318 33.001465"></polygon>
            <polygon id="Path" fill="#4CADE6" points="10.0024532 0.00634748 10.0024532 1.7e-07 14.0024532 0 14.0024532 0.99999996 10.4220532 0.99999996 1.00146418 10.420565 1.00146418 13.999965 0.001464856 13.999965 0.001464351 10.009265 -1.33226763e-14 10.007765 0.001464689 10.006365 0.00146435 10.000005 0.00781167 10.000005 10.0019532 0.00585925"></polygon>
            <polygon id="Path" fill="#4CADE6" points="1.00390318 110.001465 0.0039063 110.001465 0.0039063 113.001465 0.0039063 114.001465 1.00390318 114.001465 4.00390318 114.001465 4.00390318 113.001465 1.00390318 113.001465"></polygon>
            <polygon id="Path" fill="#4CADE6" points="279.003953 110.001465 280.003953 110.001465 280.003953 113.001465 280.003953 114.001465 279.003953 114.001465 276.003953 114.001465 276.003953 113.001465 279.003953 113.001465"></polygon>
            <polygon id="Path" fill="#4CADE6" points="279.001953 4.00146496 280.001953 4.00146496 280.001953 1.00146496 280.001953 0.00146496 279.001953 0.00146496 276.001953 0.00146519842 276.001953 1.00146496 279.001953 1.00146496"></polygon>
            <polygon id="Path" fill="#4CADE6" points="84.0019532 1.00146496 84.0019532 0.00146496 81.0019532 0.00146482887 80.0019532 0.00146478516 77.0019532 0.00146465402 77.0019532 1.00146496 80.0019532 1.00146496 80.0019532 4.00146496 81.0019532 4.00146496 81.0019532 1.00146496"></polygon>
            <polygon id="Path" fill="#4CADE6" points="84.0019532 33.001465 84.0019532 34.001465 81.0019532 34.001465 81.0019532 37.001465 80.0019532 37.001465 80.0019532 34.001465 77.0019532 34.001465 77.0019532 33.001465 80.0019532 33.001465 80.0019532 30.001465 81.0019532 30.001465 81.0019532 33.001465"></polygon>
            <polygon id="Path" fill="#4CADE6" points="84.0019532 113.001465 84.0019532 114.001465 81.0019532 114.001465 80.0019532 114.001465 77.0019532 114.001465 77.0019532 113.001465 80.0019532 113.001465 80.0019532 110.001465 81.0019532 110.001465 81.0019532 113.001465"></polygon>
            <polygon id="Path" fill="#4CADE6" points="279.003953 30.001465 280.003953 30.001465 280.003953 33.001465 280.003953 34.001465 280.003953 37.001465 279.003953 37.001465 279.003953 34.001465 276.003953 34.001465 276.003953 33.001465 279.003953 33.001465"></polygon>
        </g>
    </g>
</svg>
