<svg width="60" height="60" viewBox="0 0 60 60" fill="none" xmlns="http://www.w3.org/2000/svg">
<path d="M58.6668 30.0007C58.6668 45.8328 45.8323 58.6673 30.0002 58.6673C14.168 58.6673 1.3335 45.8328 1.3335 30.0007C1.3335 14.1685 14.168 1.33398 30.0002 1.33398C45.8323 1.33398 58.6668 14.1685 58.6668 30.0007ZM1.74301 30.0007C1.74301 45.6066 14.3942 58.2578 30.0002 58.2578C45.6062 58.2578 58.2573 45.6066 58.2573 30.0007C58.2573 14.3947 45.6062 1.7435 30.0002 1.7435C14.3942 1.7435 1.74301 14.3947 1.74301 30.0007Z" fill="#9BC9E4"/>
<path d="M16.0677 56.5686C21.0198 59.1655 26.5992 60.3266 32.1763 59.921C37.7533 59.5153 43.106 57.5591 47.6302 54.2729C52.1545 50.9868 55.6703 46.5016 57.7809 41.3234C59.8915 36.1453 60.5129 30.4803 59.5749 24.9678L56.6174 25.471C57.4616 30.4323 56.9024 35.5308 55.0028 40.1911C53.1033 44.8514 49.9391 48.8881 45.8672 51.8456C41.7954 54.8032 36.978 56.5638 31.9586 56.9289C26.9393 57.2939 21.9179 56.2489 17.4609 53.9117L16.0677 56.5686Z" fill="#9BC9E4"/>
<path d="M12.3531 5.73918C6.92118 9.69027 2.97236 15.35 1.13906 21.8118C-0.694247 28.2737 -0.305955 35.1639 2.24174 41.3789L5.01757 40.241C2.72464 34.6475 2.37518 28.4463 4.02515 22.6307C5.67512 16.815 9.22907 11.7212 14.1178 8.16527L12.3531 5.73918Z" fill="#9BC9E4"/>
<path d="M58.4075 20.3558C58.2815 19.9845 58.1482 19.6156 58.0076 19.2495L55.2069 20.3246C55.3333 20.6541 55.4533 20.986 55.5668 21.3202L58.4075 20.3558Z" fill="#9BC9E4"/>
<path d="M57.5442 18.1123C57.3888 17.7522 57.2264 17.3953 57.057 17.0416L54.3513 18.3374C54.5037 18.6557 54.6499 18.977 54.7898 19.301L57.5442 18.1123Z" fill="#9BC9E4"/>
<path d="M56.4961 15.9302C56.3122 15.5839 56.1215 15.2412 55.9241 14.9023L53.3317 16.4121C53.5093 16.7171 53.6809 17.0255 53.8465 17.3372L56.4961 15.9302Z" fill="#9BC9E4"/>
<path d="M55.2266 13.7637C55.0144 13.434 54.7957 13.1084 54.5708 12.7873L52.1137 14.5085C52.3162 14.7976 52.513 15.0906 52.704 15.3874L55.2266 13.7637Z" fill="#9BC9E4"/>
<path d="M53.8011 11.7378C53.5624 11.4267 53.3176 11.1203 53.0669 10.8188L50.7602 12.7369C50.9859 13.0083 51.2062 13.284 51.421 13.564L53.8011 11.7378Z" fill="#9BC9E4"/>
<path d="M52.0491 9.65698C51.7832 9.36878 51.5116 9.08581 51.2346 8.80825L49.1112 10.9274C49.3605 11.1772 49.6049 11.4319 49.8442 11.6913L52.0491 9.65698Z" fill="#9BC9E4"/>
<path d="M50.2333 7.8502C49.9438 7.58573 49.6491 7.32696 49.3494 7.07404L47.4145 9.36664C47.6842 9.59426 47.9494 9.82716 48.21 10.0652L50.2333 7.8502Z" fill="#9BC9E4"/>
<path d="M48.2306 6.17468C47.9192 5.93639 47.6031 5.70422 47.2826 5.47832L45.5543 7.93049C45.8428 8.1338 46.1272 8.34275 46.4075 8.55721L48.2306 6.17468Z" fill="#9BC9E4"/>
<path d="M53.3332 29.9993C53.3332 42.886 42.8865 53.3327 29.9998 53.3327C17.1132 53.3327 6.6665 42.886 6.6665 29.9993C6.6665 17.1127 17.1132 6.66602 29.9998 6.66602C42.8865 6.66602 53.3332 17.1127 53.3332 29.9993ZM6.89984 29.9993C6.89984 42.7571 17.2421 53.0993 29.9998 53.0993C42.7576 53.0993 53.0998 42.7571 53.0998 29.9993C53.0998 17.2416 42.7576 6.89935 29.9998 6.89935C17.2421 6.89935 6.89984 17.2416 6.89984 29.9993Z" fill="#9BC9E4"/>
</svg>
