<svg width="400px" height="172px" viewBox="0 0 400 172" version="1.1" xmlns="http://www.w3.org/2000/svg" xmlns:xlink="http://www.w3.org/1999/xlink">
<defs>
    <polygon id="path-9pbld-oe0t-1" points="16 0 0 16 0 40 0 171 400 171 400 40 400 16 400 0"></polygon>
</defs>
<g id="Page-1" stroke="none" stroke-width="1" fill="none" fill-rule="evenodd">
    <g id="coin-window" transform="translate(0.000000, 0.989746)">
        <polygon id="Path" fill="#2D3741" points="400 0.0102542 16 0.0102542 0 16.0102542 400 16.0102542"></polygon>
        <rect id="Rectangle" fill="#2D3741" fill-rule="nonzero" x="0" y="16.0102542" width="400" height="24"></rect>
        <rect id="Rectangle" fill="#24292D" fill-rule="nonzero" x="0" y="41.0102542" width="400" height="130"></rect>
        <g id="Clipped" transform="translate(0.000000, 0.010254)">
            <mask id="mask-9pbld-oe0t-2" fill="white">
                <use xlink:href="#path-9pbld-oe0t-1"></use>
            </mask>
            <g id="Path"></g>
            <path d="M0,16 L-0.707107,15.2929 L-1,15.5858 L-1,16 L0,16 Z M16,0 L16,-1 L15.5858,-1 L15.2929,-0.707107 L16,0 Z M0,171 L-1,171 L-1,172 L0,172 L0,171 Z M400,171 L400,172 L401,172 L401,171 L400,171 Z M400,0 L401,0 L401,-1 L400,-1 L400,0 Z M0.707107,16.7071 L16.7071,0.707107 L15.292893,-0.707107 L-0.707107,15.292893 L0.707107,16.7071 Z M1,40 L1,16 L-1,16 L-1,40 L1,40 Z M1,171 L1,40 L-1,40 L-1,171 L1,171 Z M400,170 L0,170 L0,172 L400,172 L400,170 Z M399,40 L399,171 L401,171 L401,40 L399,40 Z M399,16 L399,40 L401,40 L401,16 L399,16 Z M399,0 L399,16 L401,16 L401,0 L399,0 Z M16,1 L400,1 L400,-1 L16,-1 L16,1 Z" id="Shape" fill="#5F7285" fill-rule="nonzero" mask="url(#mask-9pbld-oe0t-2)"></path>
        </g>
        <rect id="Rectangle" fill="#5F7285" fill-rule="nonzero" x="0.00390625" y="40.0102542" width="400" height="1"></rect>
        <rect id="Rectangle" fill="#5F7285" fill-rule="nonzero" transform="translate(130.500005, 85.510254) rotate(-90.000000) translate(-130.500005, -85.510254) " x="45.000005" y="85.0102492" width="171" height="1.00001"></rect>
        <polygon id="Path" fill="#4CADE6" points="1.00195 37.0102542 0.00195312 37.0102542 0.00195312 40.0102542 0.00195312 41.0102542 0.00195312 44.0102542 1.00195 44.0102542 1.00195 41.0102542 4.00195 41.0102542 4.00195 40.0102542 1.00195 40.0102542"></polygon>
        <polygon id="Path" fill="#4CADE6" points="16.0483 0.0361331 20.0278 0.036133 20.0278 1.0361342 16.3903 1.0361342 1.02393 16.4024542 1.02393 20.0361542 0.0239262 20.0361542 0.0239258 16.0361542 0.0763092 16.0361542 0.0261917 15.9860542 16.0122 5.32907052e-15"></polygon>
        <polygon id="Path" fill="#4CADE6" points="1.00195 167.010254 0.00195312 167.010254 0.00195312 170.010254 0.00195312 171.010254 1.00195 171.010254 4.00195 171.010254 4.00195 170.010254 1.00195 170.010254"></polygon>
        <polygon id="Path" fill="#4CADE6" points="399.002 167.010254 400.002 167.010254 400.002 170.010254 400.002 171.010254 399.002 171.010254 396.002 171.010254 396.002 170.010254 399.002 170.010254"></polygon>
        <polygon id="Path" fill="#4CADE6" points="399 4.0102542 400 4.0102542 400 1.0102542 400 0.0102542 399 0.0102542 396 0.0102544384 396 1.0102542 399 1.0102542"></polygon>
        <polygon id="Path" fill="#4CADE6" points="134 1.0102542 134 0.0102542 131 0.0102540689 130 0.0102540252 127 0.010253894 127 1.0102542 130 1.0102542 130 4.0102542 131 4.0102542 131 1.0102542"></polygon>
        <polygon id="Path" fill="#4CADE6" points="134 40.0102542 134 41.0102542 131 41.0102542 131 44.0102542 130 44.0102542 130 41.0102542 127 41.0102542 127 40.0102542 130 40.0102542 130 37.0102542 131 37.0102542 131 40.0102542"></polygon>
        <polygon id="Path" fill="#4CADE6" points="134 170.010254 134 171.010254 131 171.010254 130 171.010254 127 171.010254 127 170.010254 130 170.010254 130 167.010254 131 167.010254 131 170.010254"></polygon>
        <polygon id="Path" fill="#4CADE6" points="399.002 37.0102542 400.002 37.0102542 400.002 40.0102542 400.002 41.0102542 400.002 44.0102542 399.002 44.0102542 399.002 41.0102542 396.002 41.0102542 396.002 40.0102542 399.002 40.0102542"></polygon>
    </g>
</g>
</svg>
