<svg width="292" height="65" viewBox="0 0 292 65" fill="none" xmlns="http://www.w3.org/2000/svg">
<mask id="path-1-inside-1_188_6362" fill="white">
<path fill-rule="evenodd" clip-rule="evenodd" d="M227 0H292L227 65L0 65L65 1.52588e-05L227 0Z"/>
</mask>
<path fill-rule="evenodd" clip-rule="evenodd" d="M227 0H292L227 65L0 65L65 1.52588e-05L227 0Z" fill="#523880"/>
<path d="M292 0L292.707 0.707107L294.414 -1H292V0ZM227 0V-1V0ZM227 65V66H227.414L227.707 65.7071L227 65ZM0 65L-0.707107 64.2929L-2.41421 66H3.36097e-08L0 65ZM65 1.52588e-05V-0.999985L64.5858 -0.999985L64.2929 -0.707092L65 1.52588e-05ZM292 -1H227V1H292V-1ZM227.707 65.7071L292.707 0.707107L291.293 -0.707107L226.293 64.2929L227.707 65.7071ZM3.36097e-08 66L227 66V64L-3.36097e-08 64L3.36097e-08 66ZM64.2929 -0.707092L-0.707107 64.2929L0.707107 65.7071L65.7071 0.707122L64.2929 -0.707092ZM227 -1L65 -0.999985V1.00002L227 1V-1Z" fill="#8F5AE8" mask="url(#path-1-inside-1_188_6362)"/>
</svg>
