<svg width="207" height="66" viewBox="0 0 207 66" fill="none" xmlns="http://www.w3.org/2000/svg">
<path d="M47.1414 38.032C47.1414 27.448 32.8134 23.416 23.4534 20.248C15.3174 17.512 14.0934 16.648 14.0934 14.344C14.0934 11.752 17.3334 10.6 22.5174 10.6C28.7814 10.6 33.5334 12.328 33.5334 18.52H45.0534C45.0534 8.44 38.0694 0.519998 22.5174 0.519998C9.41338 0.519998 2.57338 5.272 2.57338 13.912C2.57338 23.848 11.2854 26.728 22.0134 30.328C29.4294 32.848 35.6214 34.504 35.6214 38.176C35.6214 40.912 33.1734 42.64 25.7574 42.64C15.6774 42.64 11.7894 40.192 11.7894 32.416H0.269375C0.269375 45.232 7.10938 52.72 25.3974 52.72C41.0214 52.72 47.1414 46.744 47.1414 38.032ZM49.3138 15.64L54.4258 52H78.4738L81.2818 18.52H84.1618L86.9698 52H111.018L116.13 15.64H105.186L100.434 49.12H97.5538L94.7458 15.64H70.6978L67.8898 49.12H65.0098L60.3298 15.64H49.3138ZM117.568 42.064C117.568 45.808 119.512 52.72 130.816 52.72C140.968 52.72 144.496 47.608 145.864 41.56H148.744L146.944 45.88V46.6C146.944 50.056 148.888 52 152.344 52H160.336V41.92H155.08V31.696C155.08 19.744 146.296 14.92 136.288 14.92C126.136 14.92 118.288 20.32 118.288 29.536H129.088C129.088 26.224 131.68 24.28 136.288 24.28C141.256 24.28 143.56 26.08 143.56 29.032L132.112 30.616C121.312 32.128 117.568 35.8 117.568 42.064ZM129.088 39.904C129.088 37.816 130.816 37.312 134.272 36.808L143.56 35.512C143.56 39.976 139.384 42.64 133.048 42.64C131.104 42.64 129.088 41.992 129.088 39.904ZM164.64 15.64V65.68H176.16V49.768L174 43.288H176.88C178.752 48.112 182.208 52.72 191.208 52.72C201.72 52.72 206.976 44.152 206.976 33.856C206.976 23.56 201.72 14.92 191.208 14.92C182.208 14.92 178.752 19.528 176.88 24.352H174L176.16 17.872V15.64H164.64ZM176.16 33.856C176.16 27.664 179.616 25 185.808 25C192 25 195.456 27.664 195.456 33.856C195.456 40.048 192 42.64 185.808 42.64C179.616 42.64 176.16 40.048 176.16 33.856Z" fill="white"/>
</svg>
