<svg width="116" height="6" viewBox="0 0 116 6" fill="none" xmlns="http://www.w3.org/2000/svg">
<path fill-rule="evenodd" clip-rule="evenodd" d="M25.0591 2.99986L23.446 1.34934L24.1612 0.650391L26.1158 2.65039L26.4574 2.99986L26.1158 3.34934L24.1612 5.34934L23.446 4.65039L25.0591 2.99986ZM0 1.34957L1.61308 3.00009L0 4.65062L0.715174 5.34957L2.66979 3.34957L3.01134 3.00009L2.66979 2.65062L0.715174 0.650621L0 1.34957ZM3.89448 1.34957L5.50756 3.00009L3.89448 4.65062L4.60966 5.34957L6.56427 3.34957L6.90582 3.00009L6.56427 2.65062L4.60966 0.650621L3.89448 1.34957ZM9.42207 3.00011L7.809 1.34958L8.52417 0.650635L10.4788 2.65064L10.8203 3.00011L10.4788 3.34958L8.52417 5.34958L7.809 4.65063L9.42207 3.00011ZM11.7153 1.34958L13.3283 3.00011L11.7153 4.65063L12.4304 5.34958L14.385 3.34958L14.7266 3.00011L14.385 2.65064L12.4304 0.650635L11.7153 1.34958ZM17.239 3.00011L15.626 1.34958L16.3411 0.650635L18.2958 2.65064L18.6373 3.00011L18.2958 3.34958L16.3411 5.34958L15.626 4.65063L17.239 3.00011ZM19.5318 1.34958L21.1449 3.00011L19.5318 4.65063L20.247 5.34958L22.2016 3.34958L22.5431 3.00011L22.2016 2.65064L20.247 0.650635L19.5318 1.34958ZM27.3526 1.34958L28.9657 3.00011L27.3526 4.65063L28.0678 5.34958L30.0224 3.34958L30.3639 3.00011L30.0224 2.65064L28.0678 0.650635L27.3526 1.34958ZM32.872 3.00011L31.2589 1.34958L31.9741 0.650635L33.9287 2.65064L34.2703 3.00011L33.9287 3.34958L31.9741 5.34958L31.2589 4.65063L32.872 3.00011ZM35.1655 1.34958L36.7786 3.00011L35.1655 4.65063L35.8807 5.34958L37.8353 3.34958L38.1768 3.00011L37.8353 2.65064L35.8807 0.650635L35.1655 1.34958ZM40.6846 3.00011L39.0716 1.34958L39.7867 0.650635L41.7414 2.65064L42.0829 3.00011L41.7414 3.34958L39.7867 5.34958L39.0716 4.65063L40.6846 3.00011ZM42.9861 1.34958L44.5991 3.00011L42.9861 4.65063L43.7012 5.34958L45.6559 3.34958L45.9974 3.00011L45.6559 2.65064L43.7012 0.650635L42.9861 1.34958ZM48.5096 3.00011L46.8965 1.34958L47.6117 0.650635L49.5663 2.65064L49.9079 3.00011L49.5663 3.34958L47.6117 5.34958L46.8965 4.65063L48.5096 3.00011ZM50.7948 1.34958L52.4079 3.00011L50.7948 4.65063L51.51 5.34958L53.4646 3.34958L53.8061 3.00011L53.4646 2.65064L51.51 0.650635L50.7948 1.34958ZM56.3263 3.00011L54.7132 1.34958L55.4284 0.650635L57.383 2.65064L57.7245 3.00011L57.383 3.34958L55.4284 5.34958L54.7132 4.65063L56.3263 3.00011ZM58.6274 1.34958L60.2405 3.00011L58.6274 4.65063L59.3426 5.34958L61.2972 3.34958L61.6388 3.00011L61.2972 2.65064L59.3426 0.650635L58.6274 1.34958ZM64.1428 3.00011L62.5297 1.34958L63.2449 0.650635L65.1995 2.65064L65.5411 3.00011L65.1995 3.34958L63.2449 5.34958L62.5297 4.65063L64.1428 3.00011ZM66.432 1.34958L68.0451 3.00011L66.432 4.65063L67.1472 5.34958L69.1018 3.34958L69.4434 3.00011L69.1018 2.65064L67.1472 0.650635L66.432 1.34958ZM71.9594 3.00011L70.3463 1.34958L71.0615 0.650635L73.0161 2.65064L73.3576 3.00011L73.0161 3.34958L71.0615 5.34958L70.3463 4.65063L71.9594 3.00011ZM74.2492 1.34958L75.8623 3.00011L74.2492 4.65063L74.9644 5.34958L76.919 3.34958L77.2605 3.00011L76.919 2.65064L74.9644 0.650635L74.2492 1.34958ZM79.7717 3.00011L78.1587 1.34958L78.8738 0.650635L80.8285 2.65064L81.17 3.00011L80.8285 3.34958L78.8738 5.34958L78.1587 4.65063L79.7717 3.00011ZM82.0812 1.34958L83.6943 3.00011L82.0812 4.65063L82.7964 5.34958L84.751 3.34958L85.0926 3.00011L84.751 2.65064L82.7964 0.650635L82.0812 1.34958ZM87.593 3.00011L85.98 1.34958L86.6951 0.650635L88.6498 2.65064L88.9913 3.00011L88.6498 3.34958L86.6951 5.34958L85.98 4.65063L87.593 3.00011ZM89.8941 1.34958L91.5072 3.00011L89.8941 4.65063L90.6093 5.34958L92.5639 3.34958L92.9054 3.00011L92.5639 2.65064L90.6093 0.650635L89.8941 1.34958ZM95.4097 3.00011L93.7966 1.34958L94.5118 0.650635L96.4664 2.65064L96.808 3.00011L96.4664 3.34958L94.5118 5.34958L93.7966 4.65063L95.4097 3.00011ZM101.262 1.34958L102.875 3.00011L101.262 4.65063L101.977 5.34958L103.932 3.34958L104.273 3.00011L103.932 2.65064L101.977 0.650635L101.262 1.34958ZM110.695 3.00011L109.082 1.34958L109.798 0.650635L111.752 2.65064L112.094 3.00011L111.752 3.34958L109.798 5.34958L109.082 4.65063L110.695 3.00011ZM97.7067 1.34958L99.3198 3.00011L97.7067 4.65063L98.4219 5.34958L100.377 3.34958L100.718 3.00011L100.377 2.65064L98.4219 0.650635L97.7067 1.34958ZM106.785 3.00011L105.172 1.34958L105.887 0.650635L107.841 2.65064L108.183 3.00011L107.841 3.34958L105.887 5.34958L105.172 4.65063L106.785 3.00011ZM112.989 1.34958L114.602 3.00011L112.989 4.65063L113.704 5.34958L115.658 3.34958L116 3.00011L115.658 2.65064L113.704 0.650635L112.989 1.34958Z" fill="#B9DFF5"/>
</svg>
