<svg width="108" height="12" viewBox="0 0 108 12" fill="none" xmlns="http://www.w3.org/2000/svg">
<g clip-path="url(#clip0_1558_6338)">
<path d="M6.47656 6.0006L2.35156 1.8756L3.5299 0.697266L8.83323 6.0006L3.5299 11.3039L2.35156 10.1256L6.47656 6.0006Z" fill="#9BC9E4"/>
</g>
<g clip-path="url(#clip1_1558_6338)">
<path d="M17.3101 6.0006L13.1851 1.8756L14.3634 0.697266L19.6667 6.0006L14.3634 11.3039L13.1851 10.1256L17.3101 6.0006Z" fill="#9BC9E4"/>
</g>
<g clip-path="url(#clip2_1558_6338)">
<path d="M28.1431 6.0006L24.0181 1.8756L25.1964 0.697266L30.4997 6.0006L25.1964 11.3039L24.0181 10.1256L28.1431 6.0006Z" fill="#9BC9E4"/>
</g>
<g clip-path="url(#clip3_1558_6338)">
<path d="M38.9766 6.0006L34.8516 1.8756L36.0299 0.697266L41.3332 6.0006L36.0299 11.3039L34.8516 10.1256L38.9766 6.0006Z" fill="#9BC9E4"/>
</g>
<g clip-path="url(#clip4_1558_6338)">
<path d="M49.8101 6.0006L45.6851 1.8756L46.8634 0.697266L52.1667 6.0006L46.8634 11.3039L45.6851 10.1256L49.8101 6.0006Z" fill="#9BC9E4"/>
</g>
<g clip-path="url(#clip5_1558_6338)">
<path d="M60.6431 6.0006L56.5181 1.8756L57.6964 0.697266L62.9997 6.0006L57.6964 11.3039L56.5181 10.1256L60.6431 6.0006Z" fill="#9BC9E4"/>
</g>
<g clip-path="url(#clip6_1558_6338)">
<path d="M71.4766 6.0006L67.3516 1.8756L68.5299 0.697266L73.8332 6.0006L68.5299 11.3039L67.3516 10.1256L71.4766 6.0006Z" fill="#9BC9E4"/>
</g>
<g clip-path="url(#clip7_1558_6338)">
<path d="M82.3101 6.0006L78.1851 1.8756L79.3634 0.697266L84.6667 6.0006L79.3634 11.3039L78.1851 10.1256L82.3101 6.0006Z" fill="#9BC9E4"/>
</g>
<g clip-path="url(#clip8_1558_6338)">
<path d="M93.1431 6.0006L89.0181 1.8756L90.1964 0.697266L95.4997 6.0006L90.1964 11.3039L89.0181 10.1256L93.1431 6.0006Z" fill="#9BC9E4"/>
</g>
<g clip-path="url(#clip9_1558_6338)">
<path d="M103.977 6.0006L99.8516 1.8756L101.03 0.697266L106.333 6.0006L101.03 11.3039L99.8516 10.1256L103.977 6.0006Z" fill="#9BC9E4"/>
</g>
<defs>
<clipPath id="clip0_1558_6338">
<rect width="10" height="12" fill="white" transform="translate(0.5)"/>
</clipPath>
<clipPath id="clip1_1558_6338">
<rect width="10" height="12" fill="white" transform="translate(11.3335)"/>
</clipPath>
<clipPath id="clip2_1558_6338">
<rect width="10" height="12" fill="white" transform="translate(22.1665)"/>
</clipPath>
<clipPath id="clip3_1558_6338">
<rect width="10" height="12" fill="white" transform="translate(33)"/>
</clipPath>
<clipPath id="clip4_1558_6338">
<rect width="10" height="12" fill="white" transform="translate(43.8335)"/>
</clipPath>
<clipPath id="clip5_1558_6338">
<rect width="10" height="12" fill="white" transform="translate(54.6665)"/>
</clipPath>
<clipPath id="clip6_1558_6338">
<rect width="10" height="12" fill="white" transform="translate(65.5)"/>
</clipPath>
<clipPath id="clip7_1558_6338">
<rect width="10" height="12" fill="white" transform="translate(76.3335)"/>
</clipPath>
<clipPath id="clip8_1558_6338">
<rect width="10" height="12" fill="white" transform="translate(87.1665)"/>
</clipPath>
<clipPath id="clip9_1558_6338">
<rect width="10" height="12" fill="white" transform="translate(98)"/>
</clipPath>
</defs>
</svg>
