<svg width="90" height="90" viewBox="0 0 90 90" fill="none" xmlns="http://www.w3.org/2000/svg">
<path d="M88 45C88 68.7482 68.7482 88 45 88C21.2518 88 2 68.7482 2 45C2 21.2518 21.2518 2 45 2C68.7482 2 88 21.2518 88 45ZM2.61427 45C2.61427 68.409 21.591 87.3857 45 87.3857C68.409 87.3857 87.3857 68.409 87.3857 45C87.3857 21.591 68.409 2.61427 45 2.61427C21.591 2.61427 2.61427 21.591 2.61427 45Z" fill="#9BC9E4"/>
<path d="M24.1015 84.8529C31.5298 88.7482 39.8989 90.4899 48.2644 89.8814C56.6299 89.273 64.6589 86.3386 71.4454 81.4094C78.2318 76.4802 83.5055 69.7524 86.6714 61.9852C89.8373 54.218 90.7693 45.7205 89.3624 37.4517L84.9262 38.2066C86.1924 45.6485 85.3536 53.2962 82.5042 60.2867C79.6549 67.2771 74.9086 73.3322 68.8008 77.7684C62.693 82.2047 55.467 84.8457 47.938 85.3933C40.409 85.9409 32.8768 84.3734 26.1914 80.8676L24.1015 84.8529Z" fill="#9BC9E4"/>
<path d="M18.5297 8.60878C10.3818 14.5354 4.45854 23.025 1.70858 32.7178C-1.04137 42.4106 -0.458933 52.7459 3.36262 62.0683L7.52635 60.3615C4.08696 51.9713 3.56277 42.6695 6.03772 33.946C8.51268 25.2225 13.8436 17.5819 21.1767 12.2479L18.5297 8.60878Z" fill="#9BC9E4"/>
<path d="M87.6113 30.5337C87.4222 29.9767 87.2222 29.4235 87.0115 28.8743L82.8103 30.4869C83 30.9811 83.18 31.479 83.3502 31.9803L87.6113 30.5337Z" fill="#9BC9E4"/>
<path d="M86.3163 27.1684C86.0832 26.6283 85.8395 26.0929 85.5855 25.5624L81.5269 27.5062C81.7556 27.9836 81.9749 28.4655 82.1846 28.9516L86.3163 27.1684Z" fill="#9BC9E4"/>
<path d="M84.7441 23.8953C84.4682 23.3758 84.1822 22.8618 83.8862 22.3535L79.9976 24.6181C80.264 25.0756 80.5214 25.5382 80.7697 26.0058L84.7441 23.8953Z" fill="#9BC9E4"/>
<path d="M82.84 20.6456C82.5216 20.151 82.1936 19.6627 81.8561 19.1809L78.1705 21.7628C78.4743 22.1964 78.7695 22.6359 79.056 23.081L82.84 20.6456Z" fill="#9BC9E4"/>
<path d="M80.7017 17.6067C80.3436 17.1401 79.9764 16.6805 79.6003 16.2282L76.1403 19.1054C76.4788 19.5124 76.8092 19.9261 77.1315 20.3461L80.7017 17.6067Z" fill="#9BC9E4"/>
<path d="M78.0736 14.4855C77.6748 14.0532 77.2675 13.6287 76.852 13.2124L73.6668 16.3911C74.0407 16.7658 74.4073 17.1478 74.7662 17.5369L78.0736 14.4855Z" fill="#9BC9E4"/>
<path d="M75.35 11.7753C74.9157 11.3786 74.4736 10.9904 74.0241 10.6111L71.1217 14.05C71.5263 14.3914 71.9241 14.7407 72.315 15.0978L75.35 11.7753Z" fill="#9BC9E4"/>
<path d="M72.3459 9.26202C71.8787 8.90458 71.4046 8.55633 70.9239 8.21748L68.3315 11.8957C68.7642 12.2007 69.1909 12.5141 69.6113 12.8358L72.3459 9.26202Z" fill="#9BC9E4"/>
<path d="M80 45C80 64.33 64.33 80 45 80C25.67 80 10 64.33 10 45C10 25.67 25.67 10 45 10C64.33 10 80 25.67 80 45ZM10.35 45C10.35 64.1367 25.8633 79.65 45 79.65C64.1367 79.65 79.65 64.1367 79.65 45C79.65 25.8633 64.1367 10.35 45 10.35C25.8633 10.35 10.35 25.8633 10.35 45Z" fill="#9BC9E4"/>
</svg>
