<svg width="108" height="12" viewBox="0 0 108 12" fill="none" xmlns="http://www.w3.org/2000/svg">
<g clip-path="url(#clip0_1185_82133)">
<path d="M6.47656 6.0006L2.35156 1.8756L3.5299 0.697266L8.83323 6.0006L3.5299 11.3039L2.35156 10.1256L6.47656 6.0006Z" fill="#2D3741"/>
</g>
<g clip-path="url(#clip1_1185_82133)">
<path d="M17.3099 6.0006L13.1849 1.8756L14.3633 0.697266L19.6666 6.0006L14.3633 11.3039L13.1849 10.1256L17.3099 6.0006Z" fill="#2D3741"/>
</g>
<g clip-path="url(#clip2_1185_82133)">
<path d="M28.1432 6.0006L24.0182 1.8756L25.1965 0.697266L30.4999 6.0006L25.1965 11.3039L24.0182 10.1256L28.1432 6.0006Z" fill="#2D3741"/>
</g>
<g clip-path="url(#clip3_1185_82133)">
<path d="M38.9766 6.0006L34.8516 1.8756L36.0299 0.697266L41.3332 6.0006L36.0299 11.3039L34.8516 10.1256L38.9766 6.0006Z" fill="#2D3741"/>
</g>
<g clip-path="url(#clip4_1185_82133)">
<path d="M49.8099 6.0006L45.6849 1.8756L46.8633 0.697266L52.1666 6.0006L46.8633 11.3039L45.6849 10.1256L49.8099 6.0006Z" fill="#2D3741"/>
</g>
<g clip-path="url(#clip5_1185_82133)">
<path d="M60.6433 6.0006L56.5183 1.8756L57.6966 0.697266L63 6.0006L57.6966 11.3039L56.5183 10.1256L60.6433 6.0006Z" fill="#2D3741"/>
</g>
<g clip-path="url(#clip6_1185_82133)">
<path d="M71.4766 6.0006L67.3516 1.8756L68.5299 0.697266L73.8332 6.0006L68.5299 11.3039L67.3516 10.1256L71.4766 6.0006Z" fill="#2D3741"/>
</g>
<g clip-path="url(#clip7_1185_82133)">
<path d="M82.3099 6.0006L78.1849 1.8756L79.3632 0.697266L84.6665 6.0006L79.3632 11.3039L78.1849 10.1256L82.3099 6.0006Z" fill="#2D3741"/>
</g>
<g clip-path="url(#clip8_1185_82133)">
<path d="M93.1432 6.0006L89.0182 1.8756L90.1966 0.697266L95.4999 6.0006L90.1966 11.3039L89.0182 10.1256L93.1432 6.0006Z" fill="#2D3741"/>
</g>
<g clip-path="url(#clip9_1185_82133)">
<path d="M103.977 6.0006L99.8516 1.8756L101.03 0.697266L106.333 6.0006L101.03 11.3039L99.8516 10.1256L103.977 6.0006Z" fill="#2D3741"/>
</g>
<defs>
<clipPath id="clip0_1185_82133">
<rect width="10" height="12" fill="white" transform="translate(0.5)"/>
</clipPath>
<clipPath id="clip1_1185_82133">
<rect width="10" height="12" fill="white" transform="translate(11.3334)"/>
</clipPath>
<clipPath id="clip2_1185_82133">
<rect width="10" height="12" fill="white" transform="translate(22.1666)"/>
</clipPath>
<clipPath id="clip3_1185_82133">
<rect width="10" height="12" fill="white" transform="translate(33)"/>
</clipPath>
<clipPath id="clip4_1185_82133">
<rect width="10" height="12" fill="white" transform="translate(43.8334)"/>
</clipPath>
<clipPath id="clip5_1185_82133">
<rect width="10" height="12" fill="white" transform="translate(54.6667)"/>
</clipPath>
<clipPath id="clip6_1185_82133">
<rect width="10" height="12" fill="white" transform="translate(65.5)"/>
</clipPath>
<clipPath id="clip7_1185_82133">
<rect width="10" height="12" fill="white" transform="translate(76.3333)"/>
</clipPath>
<clipPath id="clip8_1185_82133">
<rect width="10" height="12" fill="white" transform="translate(87.1667)"/>
</clipPath>
<clipPath id="clip9_1185_82133">
<rect width="10" height="12" fill="white" transform="translate(98)"/>
</clipPath>
</defs>
</svg>
