
<svg width="400px" height="171px" viewBox="0 0 400 171" version="1.1" xmlns="http://www.w3.org/2000/svg" xmlns:xlink="http://www.w3.org/1999/xlink">
    <defs>
        <polygon id="path-6knmsyyp5p-1" points="400 0 0 0 0 16 0 40 0 155 0 171 384 171 400 155 400 40 400 16"></polygon>
    </defs>
    <g id="Page-1" stroke="none" stroke-width="1" fill="none" fill-rule="evenodd">
        <g id="swap-coin-bottom--light" transform="translate(0.000000, -0.000000)">
            <polygon id="Path" fill="#9BC9E4" fill-rule="nonzero" points="0 3.05979995e-07 400 3.05979995e-07 400 16.0000003 0 16.0000003"></polygon>
            <rect id="Rectangle" fill="#9BC9E4" fill-rule="nonzero" x="0" y="16.0000003" width="400" height="24"></rect>
            <rect id="Rectangle" fill="#B9DFF5" fill-rule="nonzero" x="0" y="40.0000003" width="400" height="115"></rect>
            <polygon id="Path" fill="#B9DFF5" points="384 171 400 155 0 155 0 171"></polygon>
            <g id="Clipped" transform="translate(0.000000, 0.000000)">
                <mask id="mask-6knmsyyp5p-2" fill="white">
                    <use xlink:href="#path-6knmsyyp5p-1"></use>
                </mask>
                <g id="Path"></g>
                <path d="M0,0 L0,-1 L-1,-1 L-1,0 L0,0 Z M400,0 L401,0 L401,-1 L400,-1 L400,0 Z M0,171 L-1,171 L-1,172 L0,172 L0,171 Z M384,171 L384,172 L384.414,172 L384.707,171.707 L384,171 Z M400,155 L400.707,155.707 L401,155.414 L401,155 L400,155 Z M0,1 L400,1 L400,-1 L0,-1 L0,1 Z M1,16 L1,0 L-1,0 L-1,16 L1,16 Z M1,40 L1,16 L-1,16 L-1,40 L1,40 Z M1,155 L1,40 L-1,40 L-1,155 L1,155 Z M-1,155 L-1,171 L1,171 L1,155 L-1,155 Z M0,172 L384,172 L384,170 L0,170 L0,172 Z M384.707,171.707 L400.707,155.707 L399.293,154.293 L383.293,170.293 L384.707,171.707 Z M399,40 L399,155 L401,155 L401,40 L399,40 Z M399,16 L399,40 L401,40 L401,16 L399,16 Z M399,0 L399,16 L401,16 L401,0 L399,0 Z" id="Shape" fill="#86B9D6" fill-rule="nonzero" mask="url(#mask-6knmsyyp5p-2)"></path>
            </g>
            <rect id="Rectangle" fill="#86B9D6" fill-rule="nonzero" x="0.00390625" y="40.0000003" width="400" height="1"></rect>
            <rect id="Rectangle" fill="#86B9D6" fill-rule="nonzero" transform="translate(130.500005, 85.500000) rotate(-90.000000) translate(-130.500005, -85.500000) " x="45.000005" y="84.9999953" width="171" height="1.00001"></rect>
            <polygon id="Path" fill="#0B5E8E" points="1.00195 37.0000003 0.00195312 37.0000003 0.00195312 40.0000003 0.00195312 41.0000003 0.00195312 44.0000003 1.00195 44.0000003 1.00195 41.0000003 4.00195 41.0000003 4.00195 40.0000003 1.00195 40.0000003"></polygon>
            <polygon id="Path" fill="#0B5E8E" points="384.002 170.972 384.002 171 380.002 171 380.002 170 383.588 170 399.002 154.586 399.002 151 400.002 151 400.002 155 400.002 155 384.016 170.986"></polygon>
            <polygon id="Path" fill="#0B5E8E" points="1.00195 167 0.00195312 167 0.00195312 170 0.00195312 171 1.00195 171 4.00195 171 4.00195 170 1.00195 170"></polygon>
            <polygon id="Path" fill="#0B5E8E" points="1.00195 4.00000031 0.00195312 4.00000031 0.00195312 1.00000031 0.00195312 3.05979995e-07 1.00195 3.05979995e-07 4.00195 5.44398995e-07 4.00195 1.00000031 1.00195 1.00000031"></polygon>
            <polygon id="Path" fill="#0B5E8E" points="399 4.00000031 400 4.00000031 400 1.00000031 400 3.05979995e-07 399 3.05979995e-07 396 5.44398995e-07 396 1.00000031 399 1.00000031"></polygon>
            <polygon id="Path" fill="#0B5E8E" points="134 1.00000031 134 3.05979995e-07 131 1.74845995e-07 130 1.31133995e-07 127 -4.88498131e-15 127 1.00000031 130 1.00000031 130 4.00000031 131 4.00000031 131 1.00000031"></polygon>
            <polygon id="Path" fill="#0B5E8E" points="134 40.0000003 134 41.0000003 131 41.0000003 131 44.0000003 130 44.0000003 130 41.0000003 127 41.0000003 127 40.0000003 130 40.0000003 130 37.0000003 131 37.0000003 131 40.0000003"></polygon>
            <polygon id="Path" fill="#0B5E8E" points="134 170 134 171 131 171 130 171 127 171 127 170 130 170 130 167 131 167 131 170"></polygon>
            <polygon id="Path" fill="#0B5E8E" points="399.002 37.0000003 400.002 37.0000003 400.002 40.0000003 400.002 41.0000003 400.002 44.0000003 399.002 44.0000003 399.002 41.0000003 396.002 41.0000003 396.002 40.0000003 399.002 40.0000003"></polygon>
        </g>
    </g>
</svg>
